<?xml version="1.0" encoding="utf-8"?>
<!-- Generator: Adobe Illustrator 23.0.6, SVG Export Plug-In . SVG Version: 6.00 Build 0)  -->
<svg version="1.1" baseProfile="tiny" id="Camada_1"
	 xmlns="http://www.w3.org/2000/svg" xmlns:xlink="http://www.w3.org/1999/xlink" x="0px" y="0px" viewBox="0 0 210 148"
	 xml:space="preserve">
<rect y="0" fill="#FFFFFF" width="210" height="148"/>
<path fill="#F4F5F5" d="M42,48h128c3.9,0,7,3.1,7,7l0,0c0,3.9-3.1,7-7,7H42c-3.9,0-7-3.1-7-7l0,0C35,51.1,38.1,48,42,48z"/>
<path fill="#F4F5F5" d="M49,72h137c3.9,0,7,3.1,7,7l0,0c0,3.9-3.1,7-7,7H49c-3.9,0-7-3.1-7-7l0,0C42,75.1,45.1,72,49,72z"/>
<path fill="#F4F5F5" d="M29,100h172c2.8,0,5,2.2,5,5l0,0c0,2.8-2.2,5-5,5H29c-2.8,0-5-2.2-5-5l0,0C24,102.2,26.2,100,29,100z"/>
<path fill="#F4F5F5" d="M9,100L9,100c2.8,0,5,2.2,5,5l0,0c0,2.8-2.2,5-5,5l0,0c-2.8,0-5-2.2-5-5l0,0C4,102.2,6.2,100,9,100z"/>
<path fill="#FFFFFF" stroke="#7F8689" d="M19.5,144c0-1.9,1.6-3.5,3.5-3.5s3.5,1.6,3.5,3.5s-1.6,3.5-3.5,3.5S19.5,145.9,19.5,144z"
	/>
<path fill="#FFFFFF" stroke="#7F8689" d="M107.5,49c0-1.4,1.1-2.5,2.5-2.5s2.5,1.1,2.5,2.5s-1.1,2.5-2.5,2.5S107.5,50.4,107.5,49z"
	/>
<path fill="#F6F7FB" d="M92,141L92,141c1.7,0,3,1.3,3,3l0,0c0,1.7-1.3,3-3,3l0,0c-1.7,0-3-1.3-3-3l0,0C89,142.3,90.3,141,92,141z"/>
<path fill="#F4F5F5" d="M181,126L181,126c2.8,0,5,2.2,5,5l0,0c0,2.8-2.2,5-5,5l0,0c-2.8,0-5-2.2-5-5l0,0
	C176,128.2,178.2,126,181,126z"/>
<path fill="#F4F5F5" d="M64,62h96c2.8,0,5,2.2,5,5l0,0c0,2.8-2.2,5-5,5H64c-2.8,0-5-2.2-5-5l0,0C59,64.2,61.2,62,64,62z"/>
<path fill="#F4F5F5" d="M38,126h128c2.8,0,5,2.2,5,5l0,0c0,2.8-2.2,5-5,5H38c-2.8,0-5-2.2-5-5l0,0C33,128.2,35.2,126,38,126z"/>
<path fill="#FFFFFF" d="M158,62h32c2.8,0,5,2.2,5,5l0,0c0,2.8-2.2,5-5,5h-32c-2.8,0-5-2.2-5-5l0,0C153,64.2,155.2,62,158,62z"/>
<path fill="#FFFFFF" d="M53,62h3c2.8,0,5,2.2,5,5l0,0c0,2.8-2.2,5-5,5h-3c-2.8,0-5-2.2-5-5l0,0C48,64.2,50.2,62,53,62z"/>
<path fill="#F4F5F5" d="M76,86h109c3.9,0,7,3.1,7,7l0,0c0,3.9-3.1,7-7,7H76c-3.9,0-7-3.1-7-7l0,0C69,89.1,72.1,86,76,86z"/>
<path fill="#FFFFFF" d="M159,86h41c3.9,0,7,3.1,7,7l0,0c0,3.9-3.1,7-7,7h-41c-3.9,0-7-3.1-7-7l0,0C152,89.1,155.1,86,159,86z"/>
<path fill="#F4F5F5" d="M76,16h109c3.9,0,7,3.1,7,7l0,0c0,3.9-3.1,7-7,7H76c-3.9,0-7-3.1-7-7l0,0C69,19.1,72.1,16,76,16z"/>
<rect x="83" y="30" fill="#F4F5F5" width="74" height="18"/>
<path fill="#FFFFFF" d="M155,30h19c5,0,9,4,9,9l0,0c0,5-4,9-9,9h-19c-5,0-9-4-9-9l0,0C146,34,150,30,155,30z"/>
<path fill="#FFFFFF" d="M78,30h9c5,0,9,4,9,9l0,0c0,5-4,9-9,9h-9c-5,0-9-4-9-9l0,0C69,34,73,30,78,30z"/>
<path fill="#FFFFFF" d="M74,86L74,86c3.9,0,7,3.1,7,7l0,0c0,3.9-3.1,7-7,7l0,0c-3.9,0-7-3.1-7-7l0,0C67,89.1,70.1,86,74,86z"/>
<path fill="#F4F5F5" d="M42,110h90c4.4,0,8,3.6,8,8l0,0c0,4.4-3.6,8-8,8H42c-4.4,0-8-3.6-8-8l0,0C34,113.6,37.6,110,42,110z"/>
<path fill="#FFFFFF" d="M116,110h16c4.4,0,8,3.6,8,8l0,0c0,4.4-3.6,8-8,8h-16c-4.4,0-8-3.6-8-8l0,0C108,113.6,111.6,110,116,110z"/>
<path fill="#FFFFFF" d="M42,110h11c4.4,0,8,3.6,8,8l0,0c0,4.4-3.6,8-8,8H42c-4.4,0-8-3.6-8-8l0,0C34,113.6,37.6,110,42,110z"/>
<path fill="#FFFFFF" stroke="#7F8689" d="M97.5,16c0-1.9,1.6-3.5,3.5-3.5s3.5,1.6,3.5,3.5s-1.6,3.5-3.5,3.5S97.5,17.9,97.5,16z"/>
<path fill="#FFFFFF" stroke="#7F8689" stroke-width="2" d="M149.9,30.5c-0.8-1.4-0.3-3.3,1.1-4.1l25.1-14.5c1.4-0.8,3.3-0.3,4.1,1.1
	l14.5,25.1c0.8,1.4,0.3,3.3-1.1,4.1l-25.1,14.5c-1.4,0.8-3.3,0.3-4.1-1.1L149.9,30.5z"/>
<path fill="#F9D3CA" d="M164.5,19.7l12.1-7c1-0.6,2.2-0.2,2.7,0.7l7,12.1l-13.9,8L164.5,19.7z"/>
<path fill="#E4F2FD" d="M158.2,43l13.9-8l8,13.9l-12.1,7c-1,0.6-2.2,0.2-2.7-0.7L158.2,43z"/>
<rect x="171.8" y="17.8" transform="matrix(0.866 -0.5 0.5 0.866 5.9443 90.7281)" fill="#7F8689" width="1" height="33"/>
<rect x="155.8" y="33.8" transform="matrix(0.866 -0.5 0.5 0.866 5.9437 90.7263)" fill="#7F8689" width="33" height="1"/>
<circle fill="#F9D3CA" stroke="#7F8689" cx="168.5" cy="26.7" r="3.5"/>
<rect x="168.2" y="21.7" transform="matrix(0.866 -0.5 0.5 0.866 9.9708 88.5302)" fill="#F9D3CA" width="4" height="8"/>
<circle fill="#FFFFFF" stroke="#7F8689" cx="179.9" cy="30.5" r="3.5"/>
<rect x="176.9" y="30.2" transform="matrix(0.866 -0.5 0.5 0.866 8.1401 94.7537)" fill="#FFFFFF" width="8" height="4"/>
<circle fill="#E4F2FD" stroke="#7F8689" cx="176.1" cy="41.9" r="3.5"/>
<rect x="172.4" y="38.9" transform="matrix(0.866 -0.5 0.5 0.866 1.9177 92.9243)" fill="#E4F2FD" width="4" height="8"/>
<path fill="#FFFFFF" stroke="#7F8689" stroke-width="2" d="M66.5,65.8l0,0.7l-0.7,0.3c-7.6,2.9-12.8,9.8-12.8,18
	c0,10.6,9.2,19.3,20.4,19.3h0.1h0.1h0.1h0.1h0.1h0.1h0.1h0.1H74H74h0.1h0.1h0.1h0.1h0.1h0.1h0.1h0.1h0.1h0.1h0.1h0.1H75h0.1h0.1h0.1
	h0.1h0.1h0.1h0.1h0.1h0.1h0.1H76H76h0.1h0.1h0.1h0.1h0.1h0.1h0.1h0.1h0.1H77h0.1h0.1h0.1h0.1h0.1h0.1h0.1h0.1h0.1H78h0.1h0.1h0.1
	h0.1h0.1h0.1h0.1h0.1H79h0.1h0.1h0.1h0.1h0.1h0.1h0.1h0.1H80h0.1h0.1h0.1h0.1h0.1h0.1h0.1h0.1h0.1h0.1h0.1h0.1h0.1h0.1h0.1h0.1h0.1
	h0.1h0.1h0.1h0.1h0.1h0.1H83h0.1h0.1h0.1h0.1h0.1h0.1h0.1H84h0.1h0.1h0.1h0.1h0.1h0.1H85h0.1h0.1h0.1h0.1h0.1h0.1h0.1h0.1h0.1h0.1
	h0.1h0.1h0.1h0.1h0.1h0.1h0.1h0.1h0.1h0.1h0.1h0.1h0.1h0.1h0.1h0.1h0.1H89h0.1h0.1h0.2h0.2h0.2h0.2H90h0.2h0.2h0.2h0.2h0.2H91h0.2
	h0.2h0.2h0.2h0.2h0.2H92h0.2h0.2h0.2h0.2h0.2H93h0.2h0.2h0.2h0.2h0.2h0.2h0.2h0.2h0.2h0.2h0.2h0.2h0.2h0.2h0.2h0.2h0.2h0.2H96h0.2
	h0.2h0.2h0.2h0.2H97h0.2h0.2h0.2h0.2h0.2H98h0.2h0.2h0.2h0.2h0.2H99h0.2h0.2h0.2h0.2h0.2h0.2h0.2h0.2h0.2h0.2h0.2h0.2h0.2h0.2h0.2
	h0.2h0.2h0.2h0.2h0.2h0.2h0.2h0.2h0.2h0.2h0.2h0.2h0.2h0.2h0.2h0.2h0.2h0.2h0.2h0.2h0.2h0.2h0.2h0.2h0.2h0.2h0.2h0.2h0.2h0.2h0.2
	h0.2h0.2h0.2h0.2h0.2h0.2h0.2h0.2h0.2h0.2h0.2h0.2h0.2h0.2h0.2h0.2h0.2h0.2h0.2h0.2h0.2h0.2h0.2h0.2h0.2h0.2h0.2h0.2h0.2h0.2h0.2
	h0.2h0.2h0.2h0.2h0.2h0.2h0.2h0.2h0.2h0.2h0.2h0.2h0.2h0.2h0.2h0.2h0.2h0.2h0.2h0.2h0.2h0.2h0.2h0.2h0.2h0.2h0.2h0.2h0.2h0.2h0.2
	h0.2h0.2h0.2h0.2h0.2h0.2h0.2h0.2h0.2h0.2h0.2h0.2h0.2h0.2h0.2h0.2h0.2h0.2h0.2h0.2h0.2h0.2h0.2h0.2h0.2h0.2h0.2h0.2h0.2h0.2h0.2
	h0.2h0.2h0.2h0.2h0.2h0.2h0.2h0.2h0.2h0.2h0.2h0.2h0.2h0.2h0.2h0.2h0.2h0.2h0.2h0.1h0.2h0.1h0.1h0.1h0.1h0.1h0.1h0.1h0.1h0.1h0.1
	h0.1h0.1h0.1h0.1h0.1h0.1h0.1h0.1h0.1h0.1h0.1h0.1h0.1h0.1h0.1h0.1h0.1h0.1h0.1h0.1h0.1h0.1h0.1h0.1h0.1h0.1h0.1h0.1h0.1h0.1h0.1
	h0.1h0.1h0.1h0.1h0.1h0.1h0.1h0.1h0.1h0.1h0.1h0.1h0.1h0.1h0.1h0.1h0.1h0.1h0.1h0.1h0.1h0.1h0.1h0.1h0.1h0.1h0.1h0.1h0.1h0.1h0.1
	h0.1h0.1h0.1h0.1h0.1h0.1h0.1h0.1h0.1h0.1h0.1h0.1h0.1h0.1h0.1h0.1h0.1h0.1h0.1h0.1h0.1h0.1h0.1h0.1h0.1h0.1h0.1h0.1h0.1h0.1h0.1
	h0.1h0.1h0.1h0.1h0.1h0.1h0.1h0.1h0.1h0.1h0.1h0.1h0.1h0.1h0.1h0.1h0.1h0.1h0.1h0.1h0.1h0.1h0.1h0.1h0.1h0.1h0.1h0.1h0.1h0.1h0.1
	h0.1h0.1h0.1h0.1h0.1h0.1h0.1h0.1h0.1h0.1h0.1h0.1h0.1h0.1h0.1c11.3,0,20.4-8.6,20.4-19.3c0-10.6-9.2-19.3-20.4-19.3h-1v-1
	c0-15.1-13-27.4-29-27.4c-9.1,0-17.1,3.9-22.2,10.1l-0.4,0.5l-0.6-0.1c-6.5-1.5-13,1.4-16.3,4.4l0,0C68.7,55,66.3,59.7,66.5,65.8z"
	/>
<path fill="#F9D3CA" d="M63,36.1c0.6,0.5,1,1.2,1,2l-0.9,14.4c-0.1,0.9-0.6,1.7-1.5,2l-13.5,5.2c-0.7,0.3-1.6,0.2-2.2-0.3L1,26.9
	c-1-0.8-1.3-2.2-0.5-3.2L14.8,4c0.8-1,2.2-1.3,3.2-0.5L63,36.1z"/>
<path fill="#FFFFFF" stroke="#FFFFFF" d="M52.7,49.9c-1.3-1-1.6-2.9-0.7-4.2c1-1.3,2.9-1.6,4.2-0.7c1.3,1,1.6,2.9,0.7,4.2
	C55.9,50.6,54.1,50.9,52.7,49.9z"/>
<path fill="#7F8689" d="M56.8,49.2c-0.1-0.5-0.6-0.9-1.2-0.8c-0.5,0.1-0.9,0.6-0.8,1.2L56.8,49.2z M69.2,64l-0.3-0.9L69.2,64z
	 M79.8,69.4c0,0.6,0.5,1,1,1c0.6,0,1-0.5,1-1L79.8,69.4z M54.9,49.6c0.2,0.9,0.3,1.9,0.5,2.9c0.2,1,0.4,2.1,0.6,3.1
	c0.4,2.1,1,4.2,1.9,5.9c0.9,1.8,2.3,3.2,4.3,3.9c2,0.7,4.4,0.6,7.4-0.5l-0.7-1.9c-2.8,1-4.7,1-6.1,0.5c-1.4-0.5-2.4-1.5-3.2-3
	c-0.8-1.5-1.3-3.3-1.7-5.4c-0.2-1-0.4-2-0.6-3c-0.2-1-0.3-2-0.5-3L54.9,49.6z M69.6,65c4.5-1.6,7-0.9,8.3,0.1c1.4,1.1,2,2.9,2,4.3
	l2,0c0-1.8-0.7-4.3-2.7-5.9c-2.1-1.7-5.4-2.1-10.2-0.4L69.6,65z"/>
<path fill="#A6D5FA" stroke="#7F8689" stroke-width="2" d="M83,93h50c5,0,9,4,9,9l0,0c0,5-4,9-9,9H83c-5,0-9-4-9-9l0,0
	C74,97,78,93,83,93z"/>
<circle fill="#7F8689" cx="125" cy="102" r="1"/>
<circle fill="#7F8689" cx="129" cy="102" r="1"/>
<circle fill="#7F8689" cx="133" cy="102" r="1"/>
<path fill="#FFFFFF" d="M82,100h35c1.1,0,2,0.9,2,2l0,0c0,1.1-0.9,2-2,2H82c-1.1,0-2-0.9-2-2l0,0C80,100.9,80.9,100,82,100z"/>
<path fill="#FFFFFF" stroke="#7F8689" stroke-width="2" d="M83,111h50c5,0,9,4,9,9l0,0c0,5-4,9-9,9H83c-5,0-9-4-9-9l0,0
	C74,115,78,111,83,111z"/>
<circle fill="#7F8689" cx="125" cy="120" r="1"/>
<circle fill="#7F8689" cx="129" cy="120" r="1"/>
<circle fill="#7F8689" cx="133" cy="120" r="1"/>
<path fill="#A6D5FA" d="M82,118h35c1.1,0,2,0.9,2,2l0,0c0,1.1-0.9,2-2,2H82c-1.1,0-2-0.9-2-2l0,0C80,118.9,80.9,118,82,118z"/>
<path fill="#FFFFFF" stroke="#7F8689" stroke-width="2" d="M83,129h50c5,0,9,4,9,9l0,0c0,5-4,9-9,9H83c-5,0-9-4-9-9l0,0
	C74,133,78,129,83,129z"/>
<circle fill="#7F8689" cx="125" cy="138" r="1"/>
<circle fill="#7F8689" cx="129" cy="138" r="1"/>
<circle fill="#7F8689" cx="133" cy="138" r="1"/>
<path fill="#A6D5FA" d="M82,136h35c1.1,0,2,0.9,2,2l0,0c0,1.1-0.9,2-2,2H82c-1.1,0-2-0.9-2-2l0,0C80,136.9,80.9,136,82,136z"/>
<rect x="108" y="68" fill="#7F8689" width="1" height="24"/>
<path fill="#E4F2FD" stroke="#7F8689" stroke-width="2" d="M108.5,63c3,0,5.5,2.5,5.5,5.5s-2.5,5.5-5.5,5.5s-5.5-2.5-5.5-5.5
	S105.5,63,108.5,63z"/>
<path fill="#7F8689" d="M187.5,95c-0.3,0-0.5-0.2-0.5-0.5v-23c0-0.3,0.2-0.5,0.5-0.5s0.5,0.2,0.5,0.5v23C188,94.8,187.8,95,187.5,95
	z"/>
<path fill="#FFFFFF" stroke="#7F8689" stroke-width="2" d="M182,68.5c0-3,2.5-5.5,5.5-5.5s5.5,2.5,5.5,5.5s-2.5,5.5-5.5,5.5
	S182,71.5,182,68.5z"/>
<text transform="matrix(0.7996 0.6005 -0.6005 0.7996 15.4465 24.6595)" fill="#FFFFFF" font-family="'Lato-Bold'" font-size="14px">A</text>
<text transform="matrix(0.7996 0.6005 -0.6005 0.7996 22.8239 30.1997)" fill="#FFFFFF" font-family="'Lato-Bold'" font-size="14px">W</text>
<text transform="matrix(0.7996 0.6005 -0.6005 0.7996 34.5392 38.9975)" fill="#FFFFFF" font-family="'Lato-Bold'" font-size="14px">S</text>
</svg>
