<?xml version="1.0" encoding="UTF-8"?>
<svg xmlns="http://www.w3.org/2000/svg" width="210" height="148" viewBox="0 0 210 148" fill="none">
  <rect x="31" y="16" width="142" height="14" rx="7" fill="#F4F5F5"></rect>
  <rect x="38" y="40" width="147" height="14" rx="7" fill="#F4F5F5"></rect>
  <rect x="20" y="68" width="182" height="10" rx="5" fill="#F4F5F5"></rect>
  <rect y="68" width="10" height="10" rx="5" fill="#F4F5F5"></rect>
  <path d="M71.5 15C71.5 13.067 73.067 11.5 75 11.5C76.933 11.5 78.5 13.067 78.5 15C78.5 16.933 76.933 18.5 75 18.5C73.067 18.5 71.5 16.933 71.5 15Z" fill="white" stroke="#7F8689"></path>
  <rect x="85" y="109" width="6" height="6" rx="3" fill="#F6F7FB"></rect>
  <rect x="196" y="40" width="14" height="14" rx="7" fill="#F4F5F5"></rect>
  <rect x="45" y="30" width="106" height="10" rx="5" fill="#F4F5F5"></rect>
  <rect x="29" y="94" width="138" height="10" rx="5" fill="#F4F5F5"></rect>
  <rect x="109" y="30" width="42" height="10" rx="5" fill="white"></rect>
  <rect x="44" y="30" width="13" height="10" rx="5" fill="white"></rect>
  <rect x="65" y="54" width="115" height="14" rx="7" fill="#F4F5F5"></rect>
  <rect x="166" y="54" width="35" height="14" rx="7" fill="white"></rect>
  <rect x="63" y="54" width="14" height="14" rx="7" fill="white"></rect>
  <rect x="30" y="78" width="106" height="16" rx="8" fill="#F4F5F5"></rect>
  <rect x="104" y="78" width="32" height="16" rx="8" fill="white"></rect>
  <rect x="29" y="78" width="16" height="16" rx="8" fill="white"></rect>
  <path d="M32.5 126C32.5 124.067 34.067 122.5 36 122.5C37.933 122.5 39.5 124.067 39.5 126C39.5 127.933 37.933 129.5 36 129.5C34.067 129.5 32.5 127.933 32.5 126Z" fill="white" stroke="#7F8689"></path>
  <path d="M98.5 41C98.5 39.6193 99.6193 38.5 101 38.5C102.381 38.5 103.5 39.6193 103.5 41C103.5 42.3807 102.381 43.5 101 43.5C99.6193 43.5 98.5 42.3807 98.5 41Z" fill="white" stroke="#7F8689"></path>
  <mask id="path-20-inside-1" fill="white">
    <path d="M195.962 106.698C195.379 105.369 195.574 103.793 196.601 102.767L198.671 100.697C199.932 99.4349 199.932 97.3893 198.671 96.1276L194.872 92.3294C193.611 91.0677 191.565 91.0677 190.303 92.3294L188.233 94.3993C187.207 95.4255 185.631 95.6211 184.302 95.0382C184.052 94.9286 183.799 94.8227 183.544 94.7207C183.317 94.6207 183.088 94.5256 182.859 94.4357C181.458 93.8864 180.406 92.6091 180.406 91.1047V88.2308C180.406 86.4465 178.96 85 177.175 85H171.825C170.04 85 168.594 86.4465 168.594 88.2308V91.1047C168.594 92.6091 167.542 93.8864 166.141 94.4357C165.912 94.5256 165.683 94.6207 165.456 94.7207C165.201 94.8227 164.948 94.9286 164.698 95.0382C163.369 95.6211 161.793 95.4255 160.767 94.3993L158.697 92.3294C157.435 91.0677 155.389 91.0677 154.128 92.3294L150.329 96.1276C149.068 97.3893 149.068 99.4349 150.329 100.697L152.399 102.767C153.426 103.793 153.627 105.371 153.01 106.685C152.89 106.939 152.773 107.196 152.659 107.456C152.57 107.68 152.484 107.905 152.402 108.13C151.89 109.545 150.609 110.594 149.105 110.594H146.231C144.446 110.594 143 112.04 143 113.825V119.175C143 120.96 144.446 122.406 146.231 122.406H149.105C150.609 122.406 151.89 123.455 152.402 124.87C152.484 125.095 152.57 125.32 152.659 125.544C152.773 125.804 152.89 126.061 153.01 126.315C153.627 127.629 153.426 129.207 152.399 130.233L150.329 132.303C149.068 133.565 149.068 135.611 150.329 136.872L154.128 140.671C155.389 141.932 157.435 141.932 158.697 140.671L160.767 138.601C161.793 137.574 163.371 137.373 164.685 137.99C164.939 138.11 165.196 138.227 165.456 138.341C165.68 138.43 165.905 138.516 166.13 138.598C167.545 139.11 168.594 140.391 168.594 141.895V144.769C168.594 146.554 170.04 148 171.825 148H177.175C178.96 148 180.406 146.554 180.406 144.769V141.895C180.406 140.391 181.455 139.11 182.87 138.598C183.095 138.516 183.32 138.43 183.544 138.341C183.804 138.227 184.061 138.11 184.315 137.99C185.629 137.373 187.207 137.574 188.233 138.601L190.303 140.671C191.565 141.932 193.611 141.932 194.872 140.671L198.671 136.872C199.932 135.611 199.932 133.565 198.671 132.303L196.601 130.233C195.574 129.207 195.379 127.631 195.962 126.302C196.071 126.052 196.177 125.799 196.279 125.544C196.379 125.317 196.474 125.088 196.564 124.859C197.114 123.458 198.391 122.406 199.895 122.406H202.769C204.554 122.406 206 120.96 206 119.175V113.825C206 112.04 204.554 110.594 202.769 110.594H199.895C198.391 110.594 197.114 109.542 196.564 108.141C196.474 107.912 196.379 107.683 196.279 107.456C196.177 107.201 196.071 106.948 195.962 106.698Z"></path>
  </mask>
  <path d="M195.962 106.698C195.379 105.369 195.574 103.793 196.601 102.767L198.671 100.697C199.932 99.4349 199.932 97.3893 198.671 96.1276L194.872 92.3294C193.611 91.0677 191.565 91.0677 190.303 92.3294L188.233 94.3993C187.207 95.4255 185.631 95.6211 184.302 95.0382C184.052 94.9286 183.799 94.8227 183.544 94.7207C183.317 94.6207 183.088 94.5256 182.859 94.4357C181.458 93.8864 180.406 92.6091 180.406 91.1047V88.2308C180.406 86.4465 178.96 85 177.175 85H171.825C170.04 85 168.594 86.4465 168.594 88.2308V91.1047C168.594 92.6091 167.542 93.8864 166.141 94.4357C165.912 94.5256 165.683 94.6207 165.456 94.7207C165.201 94.8227 164.948 94.9286 164.698 95.0382C163.369 95.6211 161.793 95.4255 160.767 94.3993L158.697 92.3294C157.435 91.0677 155.389 91.0677 154.128 92.3294L150.329 96.1276C149.068 97.3893 149.068 99.4349 150.329 100.697L152.399 102.767C153.426 103.793 153.627 105.371 153.01 106.685C152.89 106.939 152.773 107.196 152.659 107.456C152.57 107.68 152.484 107.905 152.402 108.13C151.89 109.545 150.609 110.594 149.105 110.594H146.231C144.446 110.594 143 112.04 143 113.825V119.175C143 120.96 144.446 122.406 146.231 122.406H149.105C150.609 122.406 151.89 123.455 152.402 124.87C152.484 125.095 152.57 125.32 152.659 125.544C152.773 125.804 152.89 126.061 153.01 126.315C153.627 127.629 153.426 129.207 152.399 130.233L150.329 132.303C149.068 133.565 149.068 135.611 150.329 136.872L154.128 140.671C155.389 141.932 157.435 141.932 158.697 140.671L160.767 138.601C161.793 137.574 163.371 137.373 164.685 137.99C164.939 138.11 165.196 138.227 165.456 138.341C165.68 138.43 165.905 138.516 166.13 138.598C167.545 139.11 168.594 140.391 168.594 141.895V144.769C168.594 146.554 170.04 148 171.825 148H177.175C178.96 148 180.406 146.554 180.406 144.769V141.895C180.406 140.391 181.455 139.11 182.87 138.598C183.095 138.516 183.32 138.43 183.544 138.341C183.804 138.227 184.061 138.11 184.315 137.99C185.629 137.373 187.207 137.574 188.233 138.601L190.303 140.671C191.565 141.932 193.611 141.932 194.872 140.671L198.671 136.872C199.932 135.611 199.932 133.565 198.671 132.303L196.601 130.233C195.574 129.207 195.379 127.631 195.962 126.302C196.071 126.052 196.177 125.799 196.279 125.544C196.379 125.317 196.474 125.088 196.564 124.859C197.114 123.458 198.391 122.406 199.895 122.406H202.769C204.554 122.406 206 120.96 206 119.175V113.825C206 112.04 204.554 110.594 202.769 110.594H199.895C198.391 110.594 197.114 109.542 196.564 108.141C196.474 107.912 196.379 107.683 196.279 107.456C196.177 107.201 196.071 106.948 195.962 106.698Z" fill="#E4F2FD"></path>
  <path d="M183.544 94.7207L182.738 96.5513L182.77 96.565L182.801 96.5777L183.544 94.7207ZM165.456 94.7207L166.199 96.5777L166.23 96.565L166.262 96.5513L165.456 94.7207ZM152.659 107.456L150.829 106.651L150.815 106.682L150.802 106.713L152.659 107.456ZM152.659 125.544L150.802 126.287L150.815 126.318L150.829 126.349L152.659 125.544ZM165.456 138.341L164.651 140.171L164.682 140.185L164.713 140.198L165.456 138.341ZM183.544 138.341L184.287 140.198L184.318 140.185L184.349 140.171L183.544 138.341ZM196.279 125.544L194.449 124.738L194.435 124.77L194.422 124.801L196.279 125.544ZM196.279 107.456L194.422 108.199L194.435 108.23L194.449 108.262L196.279 107.456ZM196.564 108.141L194.702 108.871L196.564 108.141ZM196.564 124.859L194.702 124.129L196.564 124.859ZM196.601 130.233L195.186 131.648H195.186L196.601 130.233ZM195.962 126.302L197.793 127.105L195.962 126.302ZM198.671 132.303L200.085 130.889V130.889L198.671 132.303ZM184.315 137.99L183.465 136.18L184.315 137.99ZM182.87 138.598L182.189 136.717L182.87 138.598ZM154.128 140.671L152.713 142.085L154.128 140.671ZM150.329 132.303L148.915 130.889H148.915L150.329 132.303ZM150.329 136.872L151.744 135.458L150.329 136.872ZM153.01 126.315L154.82 125.465L153.01 126.315ZM152.399 130.233L153.814 131.648H153.814L152.399 130.233ZM152.402 124.87L154.283 124.189L152.402 124.87ZM152.402 108.13L154.283 108.811L152.402 108.13ZM152.399 102.767L153.814 101.352L152.399 102.767ZM153.01 106.685L154.82 107.535L153.01 106.685ZM164.698 95.0382L163.895 93.2066L164.698 95.0382ZM160.767 94.3993L162.181 92.9851V92.9851L160.767 94.3993ZM166.141 94.4357L166.871 96.2976L166.141 94.4357ZM188.233 94.3993L189.648 95.8135V95.8135L188.233 94.3993ZM184.302 95.0382L185.105 93.2066L184.302 95.0382ZM166.13 138.598L166.811 136.717L166.13 138.598ZM194.872 92.3294L193.458 93.7436V93.7436L194.872 92.3294ZM190.303 92.3294L188.889 90.9152L188.889 90.9152L190.303 92.3294ZM150.329 100.697L148.915 102.111L150.329 100.697ZM198.671 100.697L197.256 99.2824L198.671 100.697ZM198.671 96.1276L200.085 94.7134V94.7134L198.671 96.1276ZM182.859 94.4357L182.129 96.2976L182.859 94.4357ZM158.697 92.3294L157.282 93.7436V93.7436L158.697 92.3294ZM164.685 137.99L165.535 136.18L164.685 137.99ZM196.601 102.767L198.015 104.181L196.601 102.767ZM195.962 106.698L197.793 105.895L195.962 106.698ZM198.015 104.181L200.085 102.111L197.256 99.2824L195.186 101.352L198.015 104.181ZM200.085 94.7134L196.287 90.9152L193.458 93.7436L197.256 97.5418L200.085 94.7134ZM188.889 90.9152L186.819 92.9851L189.648 95.8135L191.718 93.7436L188.889 90.9152ZM185.105 93.2066C184.835 93.0881 184.562 92.9738 184.287 92.8638L182.801 96.5777C183.036 96.6716 183.268 96.769 183.498 96.8698L185.105 93.2066ZM184.349 92.8901C184.097 92.7792 183.844 92.6737 183.589 92.5737L182.129 96.2976C182.332 96.3776 182.536 96.4621 182.738 96.5513L184.349 92.8901ZM182.406 91.1047V88.2308H178.406V91.1047H182.406ZM177.175 83H171.825V87H177.175V83ZM166.594 88.2308V91.1047H170.594V88.2308H166.594ZM165.411 92.5737C165.156 92.6737 164.903 92.7792 164.651 92.8901L166.262 96.5513C166.464 96.4621 166.668 96.3776 166.871 96.2976L165.411 92.5737ZM164.713 92.8638C164.438 92.9738 164.165 93.0881 163.895 93.2066L165.502 96.8698C165.732 96.769 165.964 96.6716 166.199 96.5777L164.713 92.8638ZM162.181 92.9851L160.111 90.9152L157.282 93.7436L159.352 95.8135L162.181 92.9851ZM152.713 90.9152L148.915 94.7134L151.744 97.5418L155.542 93.7436L152.713 90.9152ZM148.915 102.111L150.985 104.181L153.814 101.352L151.744 99.2824L148.915 102.111ZM151.2 105.834C151.073 106.104 150.949 106.376 150.829 106.651L154.49 108.262C154.598 108.017 154.708 107.775 154.82 107.535L151.2 105.834ZM150.802 106.713C150.705 106.958 150.611 107.203 150.522 107.45L154.283 108.811C154.357 108.606 154.435 108.402 154.516 108.199L150.802 106.713ZM149.105 108.594H146.231V112.594H149.105V108.594ZM141 113.825V119.175H145V113.825H141ZM146.231 124.406H149.105V120.406H146.231V124.406ZM150.522 125.55C150.611 125.797 150.705 126.042 150.802 126.287L154.516 124.801C154.435 124.598 154.357 124.394 154.283 124.189L150.522 125.55ZM150.829 126.349C150.949 126.624 151.073 126.896 151.2 127.166L154.82 125.465C154.708 125.225 154.598 124.983 154.49 124.738L150.829 126.349ZM150.985 128.819L148.915 130.889L151.744 133.718L153.814 131.648L150.985 128.819ZM148.915 138.287L152.713 142.085L155.542 139.256L151.744 135.458L148.915 138.287ZM160.111 142.085L162.181 140.015L159.352 137.186L157.282 139.256L160.111 142.085ZM163.834 139.8C164.104 139.927 164.376 140.051 164.651 140.171L166.262 136.51C166.017 136.402 165.775 136.292 165.535 136.18L163.834 139.8ZM164.713 140.198C164.958 140.295 165.203 140.389 165.45 140.478L166.811 136.717C166.606 136.643 166.402 136.565 166.199 136.484L164.713 140.198ZM166.594 141.895V144.769H170.594V141.895H166.594ZM171.825 150H177.175V146H171.825V150ZM182.406 144.769V141.895H178.406V144.769H182.406ZM183.55 140.478C183.797 140.389 184.042 140.295 184.287 140.198L182.801 136.484C182.598 136.565 182.394 136.643 182.189 136.717L183.55 140.478ZM184.349 140.171C184.624 140.051 184.896 139.927 185.166 139.8L183.465 136.18C183.225 136.292 182.983 136.402 182.738 136.51L184.349 140.171ZM186.819 140.015L188.889 142.085L191.718 139.256L189.648 137.186L186.819 140.015ZM196.287 142.085L200.085 138.287L197.256 135.458L193.458 139.256L196.287 142.085ZM200.085 130.889L198.015 128.819L195.186 131.648L197.256 133.718L200.085 130.889ZM197.793 127.105C197.912 126.835 198.026 126.562 198.136 126.287L194.422 124.801C194.328 125.036 194.231 125.268 194.13 125.498L197.793 127.105ZM198.11 126.349C198.221 126.097 198.326 125.844 198.426 125.589L194.702 124.129C194.622 124.332 194.538 124.536 194.449 124.738L198.11 126.349ZM199.895 124.406H202.769V120.406H199.895V124.406ZM208 119.175V113.825H204V119.175H208ZM202.769 108.594H199.895V112.594H202.769V108.594ZM198.426 107.411C198.326 107.156 198.221 106.903 198.11 106.651L194.449 108.262C194.538 108.464 194.622 108.668 194.702 108.871L198.426 107.411ZM198.136 106.713C198.026 106.438 197.912 106.165 197.793 105.895L194.13 107.502C194.231 107.732 194.328 107.964 194.422 108.199L198.136 106.713ZM199.895 108.594C199.374 108.594 198.738 108.207 198.426 107.411L194.702 108.871C195.489 110.877 197.408 112.594 199.895 112.594V108.594ZM208 113.825C208 110.936 205.658 108.594 202.769 108.594V112.594C203.449 112.594 204 113.145 204 113.825H208ZM202.769 124.406C205.658 124.406 208 122.064 208 119.175H204C204 119.855 203.449 120.406 202.769 120.406V124.406ZM198.426 125.589C198.738 124.793 199.374 124.406 199.895 124.406V120.406C197.408 120.406 195.489 122.123 194.702 124.129L198.426 125.589ZM198.015 128.819C197.651 128.455 197.494 127.788 197.793 127.105L194.13 125.498C193.264 127.474 193.498 129.959 195.186 131.648L198.015 128.819ZM200.085 138.287C202.128 136.244 202.128 132.932 200.085 130.889L197.256 133.718C197.737 134.198 197.737 134.978 197.256 135.458L200.085 138.287ZM188.889 142.085C190.932 144.128 194.244 144.128 196.287 142.085L193.458 139.256C192.978 139.737 192.198 139.737 191.718 139.256L188.889 142.085ZM185.166 139.8C185.796 139.504 186.449 139.644 186.819 140.015L189.648 137.186C187.966 135.505 185.462 135.242 183.465 136.18L185.166 139.8ZM182.406 141.895C182.406 141.367 182.793 140.752 183.55 140.478L182.189 136.717C180.117 137.467 178.406 139.414 178.406 141.895H182.406ZM177.175 150C180.064 150 182.406 147.658 182.406 144.769H178.406C178.406 145.449 177.855 146 177.175 146V150ZM152.713 142.085C154.756 144.128 158.068 144.128 160.111 142.085L157.282 139.256C156.802 139.737 156.022 139.737 155.542 139.256L152.713 142.085ZM148.915 130.889C146.872 132.932 146.872 136.244 148.915 138.287L151.744 135.458C151.263 134.978 151.263 134.198 151.744 133.718L148.915 130.889ZM151.2 127.166C151.496 127.796 151.356 128.449 150.985 128.819L153.814 131.648C155.495 129.966 155.758 127.462 154.82 125.465L151.2 127.166ZM149.105 124.406C149.633 124.406 150.248 124.793 150.522 125.55L154.283 124.189C153.533 122.117 151.586 120.406 149.105 120.406V124.406ZM141 119.175C141 122.064 143.342 124.406 146.231 124.406V120.406C145.551 120.406 145 119.855 145 119.175H141ZM146.231 108.594C143.342 108.594 141 110.936 141 113.825H145C145 113.145 145.551 112.594 146.231 112.594V108.594ZM150.522 107.45C150.248 108.207 149.633 108.594 149.105 108.594V112.594C151.586 112.594 153.533 110.883 154.283 108.811L150.522 107.45ZM150.985 104.181C151.356 104.551 151.496 105.204 151.2 105.834L154.82 107.535C155.758 105.538 155.495 103.034 153.814 101.352L150.985 104.181ZM163.895 93.2066C163.212 93.5061 162.545 93.3493 162.181 92.9851L159.352 95.8135C161.041 97.5018 163.526 97.7361 165.502 96.8698L163.895 93.2066ZM166.594 91.1047C166.594 91.6261 166.207 92.2617 165.411 92.5737L166.871 96.2976C168.877 95.5111 170.594 93.5921 170.594 91.1047H166.594ZM171.825 83C168.936 83 166.594 85.3419 166.594 88.2308H170.594C170.594 87.551 171.145 87 171.825 87V83ZM182.406 88.2308C182.406 85.3419 180.064 83 177.175 83V87C177.855 87 178.406 87.551 178.406 88.2308H182.406ZM166.594 144.769C166.594 147.658 168.936 150 171.825 150V146C171.145 146 170.594 145.449 170.594 144.769H166.594ZM186.819 92.9851C186.455 93.3493 185.788 93.5061 185.105 93.2066L183.498 96.8698C185.474 97.7361 187.959 97.5018 189.648 95.8135L186.819 92.9851ZM165.45 140.478C166.207 140.752 166.594 141.367 166.594 141.895H170.594C170.594 139.414 168.883 137.467 166.811 136.717L165.45 140.478ZM196.287 90.9152C194.244 88.8725 190.932 88.8725 188.889 90.9152L191.718 93.7436C192.198 93.263 192.978 93.263 193.458 93.7436L196.287 90.9152ZM148.915 94.7134C146.872 96.7561 146.872 100.068 148.915 102.111L151.744 99.2824C151.263 98.8018 151.263 98.0225 151.744 97.5418L148.915 94.7134ZM200.085 102.111C202.128 100.068 202.128 96.7561 200.085 94.7134L197.256 97.5418C197.737 98.0225 197.737 98.8017 197.256 99.2824L200.085 102.111ZM183.589 92.5737C182.793 92.2617 182.406 91.6261 182.406 91.1047H178.406C178.406 93.5921 180.123 95.5111 182.129 96.2976L183.589 92.5737ZM160.111 90.9152C158.068 88.8725 154.756 88.8725 152.713 90.9152L155.542 93.7436C156.022 93.263 156.802 93.263 157.282 93.7436L160.111 90.9152ZM162.181 140.015C162.551 139.644 163.204 139.504 163.834 139.8L165.535 136.18C163.538 135.242 161.034 135.505 159.352 137.186L162.181 140.015ZM195.186 101.352C193.498 103.041 193.264 105.526 194.13 107.502L197.793 105.895C197.494 105.212 197.651 104.545 198.015 104.181L195.186 101.352Z" fill="#7F8689" mask="url(#path-20-inside-1)"></path>
  <circle cx="174.5" cy="116.5" r="10" fill="white" stroke="#7F8689"></circle>
  <mask id="path-23-inside-2" fill="white">
    <path d="M40.4232 40.0547C40.0994 39.3163 40.208 38.4404 40.7782 37.8703L41.9281 36.7203C42.629 36.0194 42.629 34.8829 41.9281 34.182L39.818 32.0719C39.1171 31.371 37.9806 31.371 37.2797 32.0719L36.1297 33.2218C35.5596 33.792 34.6837 33.9006 33.9453 33.5768C33.8064 33.5159 33.6661 33.4571 33.5244 33.4004C33.3981 33.3448 33.2712 33.292 33.1437 33.242C32.3656 32.9369 31.7813 32.2273 31.7813 31.3915V29.7949C31.7813 28.8036 30.9777 28 29.9864 28H27.0136C26.0223 28 25.2188 28.8036 25.2188 29.7949V31.3915C25.2188 32.2273 24.6344 32.9369 23.8563 33.242C23.7288 33.292 23.6019 33.3448 23.4756 33.4004C23.3339 33.4571 23.1936 33.5159 23.0547 33.5768C22.3163 33.9006 21.4404 33.792 20.8703 33.2218L19.7203 32.0719C19.0194 31.371 17.8829 31.371 17.182 32.0719L15.0719 34.182C14.371 34.8829 14.371 36.0194 15.0719 36.7203L16.2218 37.8703C16.792 38.4404 16.9039 39.3173 16.5611 40.047C16.4947 40.1884 16.4297 40.3313 16.3662 40.4756C16.3165 40.5999 16.2689 40.7248 16.2235 40.8502C15.9391 41.6361 15.2273 42.2188 14.3915 42.2188H12.7949C11.8036 42.2188 11 43.0223 11 44.0136V46.9864C11 47.9777 11.8036 48.7813 12.7949 48.7813H14.3915C15.2273 48.7813 15.9391 49.3639 16.2235 50.1498C16.2689 50.2752 16.3165 50.4001 16.3662 50.5244C16.4297 50.6687 16.4947 50.8116 16.5611 50.953C16.9039 51.6827 16.792 52.5596 16.2218 53.1297L15.0719 54.2797C14.371 54.9806 14.371 56.1171 15.0719 56.818L17.182 58.9281C17.8829 59.629 19.0194 59.629 19.7203 58.9281L20.8703 57.7782C21.4404 57.208 22.3173 57.0961 23.047 57.4389C23.1884 57.5053 23.3313 57.5703 23.4756 57.6338C23.5999 57.6835 23.7248 57.7311 23.8502 57.7765C24.6361 58.0609 25.2188 58.7727 25.2188 59.6085V61.2051C25.2188 62.1964 26.0223 63 27.0136 63H29.9864C30.9777 63 31.7813 62.1964 31.7813 61.2051V59.6085C31.7813 58.7727 32.3639 58.0609 33.1498 57.7765C33.2752 57.7311 33.4001 57.6835 33.5244 57.6338C33.6687 57.5703 33.8116 57.5053 33.953 57.4389C34.6827 57.0961 35.5596 57.208 36.1297 57.7782L37.2797 58.9281C37.9806 59.629 39.1171 59.629 39.818 58.9281L41.9281 56.818C42.629 56.1171 42.629 54.9806 41.9281 54.2797L40.7782 53.1297C40.208 52.5596 40.0994 51.6837 40.4232 50.9453C40.4841 50.8064 40.5429 50.6661 40.5996 50.5244C40.6552 50.3981 40.708 50.2712 40.758 50.1437C41.0631 49.3656 41.7727 48.7813 42.6085 48.7813H44.2051C45.1964 48.7813 46 47.9777 46 46.9864V44.0136C46 43.0223 45.1964 42.2188 44.2051 42.2188H42.6085C41.7727 42.2188 41.0631 41.6344 40.758 40.8563C40.708 40.7288 40.6552 40.6019 40.5996 40.4756C40.5429 40.3339 40.4841 40.1936 40.4232 40.0547Z"></path>
  </mask>
  <path d="M40.4232 40.0547C40.0994 39.3163 40.208 38.4404 40.7782 37.8703L41.9281 36.7203C42.629 36.0194 42.629 34.8829 41.9281 34.182L39.818 32.0719C39.1171 31.371 37.9806 31.371 37.2797 32.0719L36.1297 33.2218C35.5596 33.792 34.6837 33.9006 33.9453 33.5768C33.8064 33.5159 33.6661 33.4571 33.5244 33.4004C33.3981 33.3448 33.2712 33.292 33.1437 33.242C32.3656 32.9369 31.7813 32.2273 31.7813 31.3915V29.7949C31.7813 28.8036 30.9777 28 29.9864 28H27.0136C26.0223 28 25.2188 28.8036 25.2188 29.7949V31.3915C25.2188 32.2273 24.6344 32.9369 23.8563 33.242C23.7288 33.292 23.6019 33.3448 23.4756 33.4004C23.3339 33.4571 23.1936 33.5159 23.0547 33.5768C22.3163 33.9006 21.4404 33.792 20.8703 33.2218L19.7203 32.0719C19.0194 31.371 17.8829 31.371 17.182 32.0719L15.0719 34.182C14.371 34.8829 14.371 36.0194 15.0719 36.7203L16.2218 37.8703C16.792 38.4404 16.9039 39.3173 16.5611 40.047C16.4947 40.1884 16.4297 40.3313 16.3662 40.4756C16.3165 40.5999 16.2689 40.7248 16.2235 40.8502C15.9391 41.6361 15.2273 42.2188 14.3915 42.2188H12.7949C11.8036 42.2188 11 43.0223 11 44.0136V46.9864C11 47.9777 11.8036 48.7813 12.7949 48.7813H14.3915C15.2273 48.7813 15.9391 49.3639 16.2235 50.1498C16.2689 50.2752 16.3165 50.4001 16.3662 50.5244C16.4297 50.6687 16.4947 50.8116 16.5611 50.953C16.9039 51.6827 16.792 52.5596 16.2218 53.1297L15.0719 54.2797C14.371 54.9806 14.371 56.1171 15.0719 56.818L17.182 58.9281C17.8829 59.629 19.0194 59.629 19.7203 58.9281L20.8703 57.7782C21.4404 57.208 22.3173 57.0961 23.047 57.4389C23.1884 57.5053 23.3313 57.5703 23.4756 57.6338C23.5999 57.6835 23.7248 57.7311 23.8502 57.7765C24.6361 58.0609 25.2188 58.7727 25.2188 59.6085V61.2051C25.2188 62.1964 26.0223 63 27.0136 63H29.9864C30.9777 63 31.7813 62.1964 31.7813 61.2051V59.6085C31.7813 58.7727 32.3639 58.0609 33.1498 57.7765C33.2752 57.7311 33.4001 57.6835 33.5244 57.6338C33.6687 57.5703 33.8116 57.5053 33.953 57.4389C34.6827 57.0961 35.5596 57.208 36.1297 57.7782L37.2797 58.9281C37.9806 59.629 39.1171 59.629 39.818 58.9281L41.9281 56.818C42.629 56.1171 42.629 54.9806 41.9281 54.2797L40.7782 53.1297C40.208 52.5596 40.0994 51.6837 40.4232 50.9453C40.4841 50.8064 40.5429 50.6661 40.5996 50.5244C40.6552 50.3981 40.708 50.2712 40.758 50.1437C41.0631 49.3656 41.7727 48.7813 42.6085 48.7813H44.2051C45.1964 48.7813 46 47.9777 46 46.9864V44.0136C46 43.0223 45.1964 42.2188 44.2051 42.2188H42.6085C41.7727 42.2188 41.0631 41.6344 40.758 40.8563C40.708 40.7288 40.6552 40.6019 40.5996 40.4756C40.5429 40.3339 40.4841 40.1936 40.4232 40.0547Z" fill="#F9EEEA"></path>
  <path d="M33.5244 33.4004L32.7189 35.231L32.7501 35.2447L32.7816 35.2573L33.5244 33.4004ZM23.4756 33.4004L24.2184 35.2573L24.2499 35.2447L24.2811 35.231L23.4756 33.4004ZM16.3662 40.4756L14.5356 39.6701L14.5219 39.7012L14.5093 39.7328L16.3662 40.4756ZM16.3662 50.5244L14.5093 51.2672L14.5219 51.2988L14.5356 51.3299L16.3662 50.5244ZM23.4756 57.6338L22.6701 59.4644L22.7012 59.4781L22.7328 59.4907L23.4756 57.6338ZM33.5244 57.6338L34.2672 59.4907L34.2988 59.4781L34.3299 59.4644L33.5244 57.6338ZM40.5996 50.5244L38.769 49.7189L38.7553 49.7501L38.7427 49.7816L40.5996 50.5244ZM40.5996 40.4756L38.7427 41.2184L38.7553 41.2499L38.769 41.2811L40.5996 40.4756ZM40.758 40.8563L38.896 41.5865L40.758 40.8563ZM40.758 50.1437L38.896 49.4136L40.758 50.1437ZM40.7782 53.1297L39.3639 54.5439H39.3639L40.7782 53.1297ZM40.4232 50.9453L42.2548 51.7486L40.4232 50.9453ZM41.9281 54.2797L43.3423 52.8654V52.8654L41.9281 54.2797ZM33.953 57.4389L33.1026 55.6287L33.953 57.4389ZM33.1498 57.7765L32.4692 55.8959L33.1498 57.7765ZM17.182 58.9281L15.7678 60.3423H15.7678L17.182 58.9281ZM15.0719 54.2797L13.6577 52.8655H13.6577L15.0719 54.2797ZM15.0719 56.818L16.4861 55.4038H16.4861L15.0719 56.818ZM16.5611 50.953L18.3713 50.1026H18.3713L16.5611 50.953ZM16.2218 53.1297L17.6361 54.5439H17.6361L16.2218 53.1297ZM16.2235 50.1498L18.1041 49.4692L16.2235 50.1498ZM16.2235 40.8502L18.1041 41.5308L16.2235 40.8502ZM16.2218 37.8703L17.6361 36.4561L16.2218 37.8703ZM16.5611 40.047L18.3713 40.8974H18.3713L16.5611 40.047ZM23.0547 33.5768L22.2514 31.7452L23.0547 33.5768ZM20.8703 33.2218L22.2845 31.8076V31.8076L20.8703 33.2218ZM23.8563 33.242L24.5865 35.104L23.8563 33.242ZM36.1297 33.2218L37.5439 34.6361L37.5439 34.6361L36.1297 33.2218ZM33.9453 33.5768L34.7486 31.7452L33.9453 33.5768ZM23.8502 57.7765L24.5308 55.8959L23.8502 57.7765ZM39.818 32.0719L38.4038 33.4861V33.4861L39.818 32.0719ZM37.2797 32.0719L35.8654 30.6577L35.8654 30.6577L37.2797 32.0719ZM15.0719 36.7203L13.6577 38.1346H13.6577L15.0719 36.7203ZM41.9281 36.7203L40.5139 35.3061V35.3061L41.9281 36.7203ZM41.9281 34.182L43.3423 32.7678V32.7678L41.9281 34.182ZM33.1437 33.242L32.4136 35.104L33.1437 33.242ZM19.7203 32.0719L18.3061 33.4861L18.3061 33.4861L19.7203 32.0719ZM23.047 57.4389L23.8974 55.6287L23.047 57.4389ZM40.7782 37.8703L42.1924 39.2845V39.2845L40.7782 37.8703ZM40.4232 40.0547L42.2548 39.2514L40.4232 40.0547ZM42.1924 39.2845L43.3423 38.1346L40.5139 35.3061L39.3639 36.4561L42.1924 39.2845ZM43.3423 32.7678L41.2322 30.6577L38.4038 33.4861L40.5139 35.5962L43.3423 32.7678ZM35.8654 30.6577L34.7155 31.8076L37.5439 34.6361L38.6939 33.4861L35.8654 30.6577ZM34.7486 31.7452C34.5895 31.6754 34.4291 31.6082 34.2672 31.5434L32.7816 35.2573C32.9032 35.306 33.0233 35.3563 33.142 35.4084L34.7486 31.7452ZM34.3299 31.5698C34.1789 31.5033 34.0269 31.4401 33.8739 31.3801L32.4136 35.104C32.5155 35.144 32.6173 35.1863 32.7189 35.231L34.3299 31.5698ZM33.7813 31.3915V29.7949H29.7813V31.3915H33.7813ZM29.9864 26H27.0136V30H29.9864V26ZM23.2188 29.7949V31.3915H27.2188V29.7949H23.2188ZM23.1261 31.3801C22.9731 31.4401 22.8211 31.5033 22.6701 31.5698L24.2811 35.231C24.3827 35.1863 24.4845 35.144 24.5865 35.104L23.1261 31.3801ZM22.7328 31.5434C22.5709 31.6082 22.4105 31.6754 22.2514 31.7452L23.858 35.4084C23.9767 35.3563 24.0969 35.306 24.2184 35.2573L22.7328 31.5434ZM22.2845 31.8076L21.1346 30.6577L18.3061 33.4861L19.4561 34.6361L22.2845 31.8076ZM15.7678 30.6577L13.6577 32.7678L16.4861 35.5962L18.5962 33.4861L15.7678 30.6577ZM13.6577 38.1346L14.8076 39.2845L17.6361 36.4561L16.4861 35.3061L13.6577 38.1346ZM14.7509 39.1966C14.6774 39.3531 14.6056 39.5109 14.5356 39.6701L18.1968 41.2811C18.2538 41.1517 18.3119 41.0238 18.3713 40.8974L14.7509 39.1966ZM14.5093 39.7328C14.4513 39.8776 14.3959 40.0232 14.3429 40.1696L18.1041 41.5308C18.142 41.4264 18.1816 41.3222 18.2232 41.2184L14.5093 39.7328ZM14.3915 40.2188H12.7949V44.2188H14.3915V40.2188ZM9 44.0136V46.9864H13V44.0136H9ZM12.7949 50.7813H14.3915V46.7813H12.7949V50.7813ZM14.3429 50.8304C14.3959 50.9768 14.4513 51.1224 14.5093 51.2672L18.2232 49.7816C18.1816 49.6778 18.142 49.5736 18.1041 49.4692L14.3429 50.8304ZM14.5356 51.3299C14.6056 51.4891 14.6774 51.6469 14.7509 51.8034L18.3713 50.1026C18.3119 49.9762 18.2538 49.8483 18.1968 49.7189L14.5356 51.3299ZM14.8076 51.7155L13.6577 52.8655L16.4861 55.6939L17.6361 54.5439L14.8076 51.7155ZM13.6577 58.2322L15.7678 60.3423L18.5962 57.5139L16.4861 55.4038L13.6577 58.2322ZM21.1346 60.3423L22.2845 59.1924L19.4561 56.3639L18.3061 57.5139L21.1346 60.3423ZM22.1966 59.2491C22.3531 59.3226 22.5109 59.3944 22.6701 59.4644L24.2811 55.8032C24.1517 55.7462 24.0238 55.6881 23.8974 55.6287L22.1966 59.2491ZM22.7328 59.4907C22.8776 59.5487 23.0232 59.6041 23.1696 59.6571L24.5308 55.8959C24.4264 55.858 24.3222 55.8184 24.2184 55.7768L22.7328 59.4907ZM23.2188 59.6085V61.2051H27.2188V59.6085H23.2188ZM27.0136 65H29.9864V61H27.0136V65ZM33.7813 61.2051V59.6085H29.7813V61.2051H33.7813ZM33.8304 59.6571C33.9768 59.6041 34.1224 59.5487 34.2672 59.4907L32.7816 55.7768C32.6778 55.8184 32.5736 55.858 32.4692 55.8959L33.8304 59.6571ZM34.3299 59.4644C34.4891 59.3944 34.6469 59.3226 34.8034 59.2491L33.1026 55.6287C32.9762 55.6881 32.8483 55.7462 32.7189 55.8032L34.3299 59.4644ZM34.7155 59.1924L35.8655 60.3423L38.6939 57.5139L37.5439 56.3639L34.7155 59.1924ZM41.2322 60.3423L43.3423 58.2322L40.5139 55.4038L38.4038 57.5139L41.2322 60.3423ZM43.3423 52.8654L42.1924 51.7155L39.3639 54.5439L40.5139 55.6939L43.3423 52.8654ZM42.2548 51.7486C42.3246 51.5895 42.3918 51.4291 42.4566 51.2672L38.7427 49.7816C38.694 49.9032 38.6437 50.0233 38.5916 50.142L42.2548 51.7486ZM42.4302 51.3299C42.4967 51.1789 42.5599 51.0269 42.6199 50.8739L38.896 49.4136C38.8561 49.5155 38.8137 49.6173 38.769 49.7189L42.4302 51.3299ZM42.6085 50.7813H44.2051V46.7813H42.6085V50.7813ZM48 46.9864V44.0136H44V46.9864H48ZM44.2051 40.2188H42.6085V44.2188H44.2051V40.2188ZM42.6199 40.1261C42.5599 39.9731 42.4967 39.8211 42.4302 39.6701L38.769 41.2811C38.8137 41.3827 38.8561 41.4845 38.896 41.5865L42.6199 40.1261ZM42.4566 39.7328C42.3918 39.5709 42.3246 39.4105 42.2548 39.2514L38.5916 40.858C38.6437 40.9767 38.694 41.0968 38.7427 41.2184L42.4566 39.7328ZM42.6085 40.2188C42.635 40.2188 42.6597 40.2238 42.678 40.2302C42.695 40.2363 42.6999 40.2411 42.6949 40.2373C42.6895 40.2332 42.6768 40.2222 42.6614 40.2015C42.6461 40.181 42.6314 40.1553 42.6199 40.1261L38.896 41.5865C39.4384 42.9696 40.7897 44.2188 42.6085 44.2188V40.2188ZM48 44.0136C48 41.9178 46.301 40.2188 44.2051 40.2188V44.2188C44.0918 44.2188 44 44.1269 44 44.0136H48ZM44.2051 50.7813C46.301 50.7813 48 49.0822 48 46.9864H44C44 46.8731 44.0918 46.7813 44.2051 46.7813V50.7813ZM42.6199 50.8739C42.6314 50.8447 42.6461 50.819 42.6614 50.7985C42.6768 50.7778 42.6895 50.7668 42.6949 50.7627C42.6999 50.7589 42.695 50.7637 42.678 50.7698C42.6597 50.7762 42.635 50.7813 42.6085 50.7813V46.7813C40.7897 46.7813 39.4384 48.0304 38.896 49.4136L42.6199 50.8739ZM42.1924 51.7155C42.2097 51.7329 42.2233 51.7526 42.2321 51.7707C42.2406 51.7879 42.2426 51.7989 42.2429 51.8011C42.2432 51.8029 42.2422 51.7979 42.2437 51.7869C42.2452 51.776 42.2486 51.7627 42.2548 51.7486L38.5916 50.142C37.9844 51.5266 38.1318 53.3118 39.3639 54.5439L42.1924 51.7155ZM43.3423 58.2322C44.8243 56.7502 44.8243 54.3474 43.3423 52.8654L40.5139 55.6939C40.4338 55.6138 40.4338 55.4839 40.5139 55.4038L43.3423 58.2322ZM35.8655 60.3423C37.3474 61.8243 39.7502 61.8243 41.2322 60.3423L38.4038 57.5139C38.4839 57.4338 38.6138 57.4338 38.6939 57.5139L35.8655 60.3423ZM34.8034 59.2491C34.8156 59.2434 34.8201 59.2464 34.8089 59.2447C34.8019 59.2437 34.7883 59.2406 34.7704 59.2318C34.7516 59.2226 34.7322 59.2091 34.7155 59.1924L37.5439 56.3639C36.3181 55.1381 34.5159 54.9648 33.1026 55.6287L34.8034 59.2491ZM33.7813 59.6085C33.7813 59.6341 33.7765 59.6586 33.7696 59.6779C33.7632 59.6961 33.7571 59.7038 33.7577 59.703C33.7587 59.7018 33.7649 59.6941 33.7787 59.6841C33.7925 59.6742 33.8101 59.6645 33.8304 59.6571L32.4692 55.8959C31.0256 56.4183 29.7813 57.7963 29.7813 59.6085H33.7813ZM29.9864 65C32.0822 65 33.7813 63.301 33.7813 61.2051H29.7813C29.7813 61.0918 29.8731 61 29.9864 61V65ZM15.7678 60.3423C17.2498 61.8243 19.6526 61.8243 21.1346 60.3423L18.3061 57.5139C18.3862 57.4338 18.5161 57.4338 18.5962 57.5139L15.7678 60.3423ZM13.6577 52.8655C12.1757 54.3474 12.1757 56.7502 13.6577 58.2322L16.4861 55.4038C16.5662 55.4839 16.5662 55.6138 16.4861 55.6939L13.6577 52.8655ZM14.7509 51.8034C14.7566 51.8156 14.7536 51.8201 14.7553 51.8089C14.7563 51.8019 14.7594 51.7883 14.7682 51.7704C14.7774 51.7516 14.7909 51.7322 14.8076 51.7155L17.6361 54.5439C18.8619 53.3181 19.0352 51.5158 18.3713 50.1026L14.7509 51.8034ZM14.3915 50.7813C14.3659 50.7813 14.3414 50.7765 14.3221 50.7696C14.3039 50.7632 14.2962 50.7571 14.2971 50.7577C14.2982 50.7587 14.3059 50.7649 14.3159 50.7787C14.3258 50.7925 14.3355 50.8101 14.3429 50.8304L18.1041 49.4692C17.5817 48.0256 16.2037 46.7813 14.3915 46.7813V50.7813ZM9 46.9864C9 49.0822 10.699 50.7813 12.7949 50.7813V46.7813C12.9082 46.7813 13 46.8731 13 46.9864H9ZM12.7949 40.2188C10.699 40.2188 9 41.9178 9 44.0136H13C13 44.1269 12.9082 44.2188 12.7949 44.2188V40.2188ZM14.3429 40.1696C14.3355 40.1899 14.3258 40.2075 14.3159 40.2213C14.3059 40.2351 14.2982 40.2413 14.2971 40.2423C14.2962 40.2429 14.3039 40.2368 14.3221 40.2304C14.3414 40.2235 14.3659 40.2188 14.3915 40.2188V44.2188C16.2037 44.2188 17.5817 42.9744 18.1041 41.5308L14.3429 40.1696ZM14.8076 39.2845C14.7909 39.2678 14.7774 39.2484 14.7682 39.2296C14.7594 39.2117 14.7563 39.1981 14.7553 39.1911C14.7536 39.1799 14.7566 39.1844 14.7509 39.1966L18.3713 40.8974C19.0352 39.4842 18.8619 37.6819 17.6361 36.4561L14.8076 39.2845ZM22.2514 31.7452C22.2373 31.7514 22.224 31.7548 22.2131 31.7563C22.2021 31.7578 22.1971 31.7568 22.1989 31.7571C22.2011 31.7574 22.2122 31.7594 22.2293 31.7679C22.2474 31.7767 22.2671 31.7903 22.2845 31.8076L19.4561 34.6361C20.6882 35.8682 22.4734 36.0156 23.858 35.4084L22.2514 31.7452ZM23.2188 31.3915C23.2188 31.365 23.2238 31.3403 23.2302 31.322C23.2363 31.305 23.2411 31.3001 23.2373 31.3051C23.2332 31.3105 23.2222 31.3232 23.2015 31.3386C23.181 31.3539 23.1553 31.3686 23.1261 31.3801L24.5865 35.104C25.9696 34.5616 27.2188 33.2103 27.2188 31.3915H23.2188ZM27.0136 26C24.9178 26 23.2188 27.699 23.2188 29.7949H27.2188C27.2188 29.9082 27.1269 30 27.0136 30V26ZM33.7813 29.7949C33.7813 27.699 32.0822 26 29.9864 26V30C29.8731 30 29.7813 29.9082 29.7813 29.7949H33.7813ZM23.2188 61.2051C23.2188 63.301 24.9178 65 27.0136 65V61C27.1269 61 27.2188 61.0918 27.2188 61.2051H23.2188ZM34.7155 31.8076C34.7329 31.7903 34.7526 31.7767 34.7707 31.7679C34.7879 31.7594 34.7989 31.7574 34.8011 31.7571C34.8029 31.7568 34.7979 31.7578 34.7869 31.7563C34.776 31.7548 34.7627 31.7514 34.7486 31.7452L33.142 35.4084C34.5266 36.0156 36.3118 35.8682 37.5439 34.6361L34.7155 31.8076ZM23.1696 59.6571C23.1899 59.6645 23.2075 59.6742 23.2213 59.6841C23.2351 59.6941 23.2413 59.7018 23.2423 59.703C23.2429 59.7038 23.2368 59.6961 23.2304 59.6779C23.2235 59.6586 23.2188 59.6341 23.2188 59.6085H27.2188C27.2188 57.7963 25.9744 56.4183 24.5308 55.8959L23.1696 59.6571ZM41.2322 30.6577C39.7502 29.1757 37.3474 29.1757 35.8654 30.6577L38.6939 33.4861C38.6138 33.5662 38.4839 33.5662 38.4038 33.4861L41.2322 30.6577ZM13.6577 32.7678C12.1757 34.2498 12.1757 36.6526 13.6577 38.1346L16.4861 35.3061C16.5662 35.3862 16.5662 35.5161 16.4861 35.5962L13.6577 32.7678ZM43.3423 38.1346C44.8243 36.6526 44.8243 34.2498 43.3423 32.7678L40.5139 35.5962C40.4338 35.5161 40.4338 35.3862 40.5139 35.3061L43.3423 38.1346ZM33.8739 31.3801C33.8447 31.3686 33.819 31.3539 33.7985 31.3386C33.7778 31.3232 33.7668 31.3105 33.7627 31.3051C33.7589 31.3001 33.7637 31.305 33.7698 31.322C33.7762 31.3403 33.7813 31.365 33.7813 31.3915H29.7813C29.7813 33.2103 31.0304 34.5616 32.4136 35.104L33.8739 31.3801ZM21.1346 30.6577C19.6526 29.1757 17.2498 29.1757 15.7678 30.6577L18.5962 33.4861C18.5161 33.5662 18.3862 33.5662 18.3061 33.4861L21.1346 30.6577ZM22.2845 59.1924C22.2678 59.2091 22.2484 59.2226 22.2296 59.2318C22.2117 59.2406 22.1981 59.2437 22.1911 59.2447C22.1799 59.2464 22.1844 59.2434 22.1966 59.2491L23.8974 55.6287C22.4842 54.9648 20.6819 55.1381 19.4561 56.3639L22.2845 59.1924ZM39.3639 36.4561C38.1318 37.6882 37.9844 39.4734 38.5916 40.858L42.2548 39.2514C42.2486 39.2373 42.2452 39.224 42.2437 39.2131C42.2422 39.2021 42.2432 39.1971 42.2429 39.1989C42.2426 39.2011 42.2406 39.2122 42.2321 39.2293C42.2233 39.2474 42.2097 39.2671 42.1924 39.2845L39.3639 36.4561Z" fill="#7F8689" mask="url(#path-23-inside-2)"></path>
  <circle cx="28.4993" cy="45.4993" r="5.33333" fill="white" stroke="#7F8689"></circle>
  <rect x="50" y="54" width="110" height="73" rx="3" fill="white" stroke="#7F8689" stroke-width="2"></rect>
  <path d="M143.899 1.88779L150.557 8.54608C151.402 9.39148 151.402 10.762 150.557 11.6074L145.607 16.557C144.762 17.4024 143.391 17.4024 142.546 16.557L135.888 9.89875C135.432 9.4427 134.656 9.65357 134.487 10.276C133.223 14.938 134.419 20.1271 138.079 23.7875C142.062 27.7709 147.856 28.8348 152.811 26.987L181.627 58.498C184.586 61.7335 189.646 61.8465 192.746 58.7463C195.861 55.6313 195.73 50.5422 192.459 47.5917L160.876 19.1051C162.878 14.0873 161.85 8.14137 157.788 4.07891C154.127 0.41853 148.938 -0.776888 144.276 0.487141C143.653 0.65591 143.443 1.43174 143.899 1.88779ZM189.447 53.2521C189.447 54.5253 188.415 55.5573 187.141 55.5573C185.868 55.5573 184.836 54.5253 184.836 53.2521C184.836 51.979 185.868 50.9469 187.141 50.9469C188.415 50.9469 189.447 51.979 189.447 53.2521Z" fill="#A6D5FA"></path>
  <rect x="79" y="146" width="52" height="2" rx="1" fill="#7F8689"></rect>
  <rect x="104" y="147" width="21" height="2" transform="rotate(-90 104 147)" fill="#7F8689"></rect>
  <mask id="path-30-inside-3" fill="white">
    <path d="M49 117H160V118H49V117Z"></path>
  </mask>
  <path d="M49 117H160V118H49V117Z" fill="white"></path>
  <path d="M49 117V115H47V117H49ZM160 117H162V115H160V117ZM160 118V120H162V118H160ZM49 118H47V120H49V118ZM49 119H160V115H49V119ZM158 117V118H162V117H158ZM160 116H49V120H160V116ZM51 118V117H47V118H51Z" fill="#7F8689" mask="url(#path-30-inside-3)"></path>
  <rect x="70.5" y="68.5" width="69" height="31" rx="1.5" fill="white" stroke="#7F8689"></rect>
  <path d="M70 106C70 104.895 70.8954 104 72 104H101C102.105 104 103 104.895 103 106V117H70V106Z" fill="#F9EEEA"></path>
  <path d="M107 106C107 104.895 107.895 104 109 104H138C139.105 104 140 104.895 140 106V117H107V106Z" fill="#F9EEEA"></path>
  <circle cx="71" cy="63" r="1" fill="#7F8689"></circle>
  <circle cx="75" cy="63" r="1" fill="#7F8689"></circle>
  <circle cx="79" cy="63" r="1" fill="#7F8689"></circle>
  <rect x="93.9248" y="91.5255" width="8.46365" height="62.9474" rx="4.23183" transform="rotate(45 93.9248 91.5255)" fill="white" stroke="#7F8689" stroke-width="2"></rect>
  <path d="M112.743 91.6545C110.324 94.2476 105.485 94.2476 103.55 93.729C101.614 93.2104 97.2597 91.1359 98.7113 85.9497C99.5906 82.808 102.582 78.1704 109.84 77.1332C115.646 76.3034 120.646 79.5534 122.42 81.2822C120.808 81.6279 117.291 82.838 116.13 84.9125C114.679 87.5056 115.163 89.0614 112.743 91.6545Z" fill="#A6D5FA"></path>
  <rect x="87.7134" y="110" width="8.94445" height="1" transform="rotate(-135 87.7134 110)" fill="#7F8689"></rect>
</svg>
