<?xml version="1.0" encoding="UTF-8"?>
<svg xmlns="http://www.w3.org/2000/svg" width="210" height="148" viewBox="0 0 210 148" fill="none">
  <rect width="210" height="148" fill="white"></rect>
  <rect width="142" height="16" rx="8" transform="matrix(1 0 0 -1 11 106)" fill="#F4F5F5"></rect>
  <rect width="119" height="14" rx="7" transform="matrix(1 0 0 -1 34 131)" fill="#F4F5F5"></rect>
  <rect width="50" height="11" rx="5.5" transform="matrix(1 0 0 -1 39 117)" fill="#F4F5F5"></rect>
  <rect width="27" height="11" rx="5.5" transform="matrix(1 0 0 -1 20 117)" fill="white"></rect>
  <rect width="147" height="14" rx="7" transform="matrix(1 0 0 -1 38 80)" fill="#F4F5F5"></rect>
  <rect width="182" height="10" rx="5" transform="matrix(1 0 0 -1 20 52)" fill="#F4F5F5"></rect>
  <rect width="10" height="10" rx="5" transform="matrix(1 0 0 -1 0 52)" fill="#F4F5F5"></rect>
  <path d="M11.5 116C11.5 117.933 13.067 119.5 15 119.5C16.933 119.5 18.5 117.933 18.5 116C18.5 114.067 16.933 112.5 15 112.5C13.067 112.5 11.5 114.067 11.5 116Z" fill="white" stroke="#7F8689"></path>
  <path d="M186.5 116C186.5 117.381 187.619 118.5 189 118.5C190.381 118.5 191.5 117.381 191.5 116C191.5 114.619 190.381 113.5 189 113.5C187.619 113.5 186.5 114.619 186.5 116Z" fill="white" stroke="#7F8689"></path>
  <rect width="6" height="6" rx="3" transform="matrix(1 0 0 -1 85 11)" fill="#F4F5F5"></rect>
  <rect width="14" height="14" rx="7" transform="matrix(1 0 0 -1 196 80)" fill="#F4F5F5"></rect>
  <rect width="106" height="10" rx="5" transform="matrix(1 0 0 -1 45 90)" fill="#F4F5F5"></rect>
  <rect width="155" height="12" rx="6" transform="matrix(1 0 0 -1 29 28)" fill="#F4F5F5"></rect>
  <rect width="12" height="10" rx="5" transform="matrix(1 0 0 -1 139 90)" fill="white"></rect>
  <rect width="13" height="10" rx="5" transform="matrix(1 0 0 -1 44 90)" fill="white"></rect>
  <rect width="115" height="14" rx="7" transform="matrix(1 0 0 -1 65 66)" fill="#F4F5F5"></rect>
  <rect width="48" height="14" rx="7" transform="matrix(1 0 0 -1 155 66)" fill="white"></rect>
  <rect width="14" height="14" rx="7" transform="matrix(1 0 0 -1 63 66)" fill="white"></rect>
  <rect width="80" height="14" rx="7" transform="matrix(1 0 0 -1 56 42)" fill="#F4F5F5"></rect>
  <rect width="34" height="14" rx="7" transform="matrix(1 0 0 -1 124 42)" fill="white"></rect>
  <rect width="31" height="14" rx="7" transform="matrix(1 0 0 -1 50 42)" fill="white"></rect>
  <path d="M202.5 24C202.5 25.933 204.067 27.5 206 27.5C207.933 27.5 209.5 25.933 209.5 24C209.5 22.067 207.933 20.5 206 20.5C204.067 20.5 202.5 22.067 202.5 24Z" fill="white" stroke="#7F8689"></path>
  <path d="M56.5 2.5C56.5 3.60457 57.3954 4.5 58.5 4.5C59.6046 4.5 60.5 3.60457 60.5 2.5C60.5 1.39543 59.6046 0.5 58.5 0.5C57.3954 0.5 56.5 1.39543 56.5 2.5Z" fill="white" stroke="#7F8689"></path>
  <mask id="path-25-inside-1" fill="white">
    <path d="M72.0332 48.221C71.5706 47.1662 71.7258 45.9149 72.5402 45.1004L74.183 43.4576C75.1843 42.4563 75.1843 40.8328 74.183 39.8314L71.1686 36.817C70.1672 35.8157 68.5437 35.8157 67.5424 36.817L65.8996 38.4598C65.0851 39.2742 63.8338 39.4294 62.779 38.9668C62.5806 38.8798 62.3802 38.7958 62.1777 38.7148C61.9973 38.6354 61.816 38.56 61.6339 38.4886C60.5224 38.0527 59.6875 37.039 59.6875 35.845V33.5641C59.6875 32.148 58.5395 31 57.1234 31H52.8766C51.4605 31 50.3125 32.148 50.3125 33.5641V35.845C50.3125 37.039 49.4777 38.0527 48.3661 38.4886C48.184 38.56 48.0027 38.6354 47.8223 38.7148C47.6198 38.7958 47.4194 38.8798 47.221 38.9668C46.1662 39.4294 44.9149 39.2742 44.1004 38.4598L42.4576 36.817C41.4563 35.8157 39.8328 35.8157 38.8314 36.817L35.817 39.8314C34.8157 40.8328 34.8157 42.4563 35.817 43.4576L37.4598 45.1004C38.2742 45.9149 38.4342 47.1676 37.9444 48.2101C37.8495 48.412 37.7567 48.6161 37.666 48.8223C37.595 48.9999 37.527 49.1783 37.4622 49.3574C37.0558 50.4802 36.039 51.3125 34.845 51.3125H32.5641C31.148 51.3125 30 52.4605 30 53.8766V58.1234C30 59.5395 31.148 60.6875 32.5641 60.6875H34.845C36.039 60.6875 37.0558 61.5198 37.4622 62.6426C37.527 62.8217 37.595 63.0001 37.666 63.1777C37.7567 63.3839 37.8495 63.588 37.9444 63.7899C38.4342 64.8324 38.2742 66.0851 37.4598 66.8996L35.817 68.5424C34.8157 69.5437 34.8157 71.1672 35.817 72.1686L38.8314 75.183C39.8328 76.1843 41.4563 76.1843 42.4576 75.183L44.1004 73.5402C44.9149 72.7258 46.1676 72.5658 47.2101 73.0556C47.412 73.1505 47.6161 73.2433 47.8223 73.334C47.9999 73.405 48.1783 73.473 48.3574 73.5378C49.4802 73.9442 50.3125 74.961 50.3125 76.155V78.4359C50.3125 79.852 51.4605 81 52.8766 81H57.1234C58.5395 81 59.6875 79.852 59.6875 78.4359V76.155C59.6875 74.961 60.5198 73.9442 61.6426 73.5378C61.8217 73.473 62.0001 73.405 62.1777 73.334C62.3839 73.2433 62.588 73.1505 62.7899 73.0556C63.8324 72.5658 65.0851 72.7258 65.8996 73.5402L67.5424 75.183C68.5437 76.1843 70.1672 76.1843 71.1686 75.183L74.183 72.1686C75.1843 71.1672 75.1843 69.5437 74.183 68.5424L72.5402 66.8996C71.7258 66.0851 71.5706 64.8338 72.0332 63.779C72.1202 63.5806 72.2042 63.3802 72.2852 63.1777C72.3646 62.9973 72.44 62.816 72.5114 62.6339C72.9473 61.5224 73.961 60.6875 75.155 60.6875H77.4359C78.852 60.6875 80 59.5395 80 58.1234V53.8766C80 52.4605 78.852 51.3125 77.4359 51.3125H75.155C73.961 51.3125 72.9473 50.4777 72.5114 49.3661C72.44 49.184 72.3646 49.0027 72.2852 48.8223C72.2042 48.6198 72.1202 48.4194 72.0332 48.221Z"></path>
  </mask>
  <path d="M72.0332 48.221C71.5706 47.1662 71.7258 45.9149 72.5402 45.1004L74.183 43.4576C75.1843 42.4563 75.1843 40.8328 74.183 39.8314L71.1686 36.817C70.1672 35.8157 68.5437 35.8157 67.5424 36.817L65.8996 38.4598C65.0851 39.2742 63.8338 39.4294 62.779 38.9668C62.5806 38.8798 62.3802 38.7958 62.1777 38.7148C61.9973 38.6354 61.816 38.56 61.6339 38.4886C60.5224 38.0527 59.6875 37.039 59.6875 35.845V33.5641C59.6875 32.148 58.5395 31 57.1234 31H52.8766C51.4605 31 50.3125 32.148 50.3125 33.5641V35.845C50.3125 37.039 49.4777 38.0527 48.3661 38.4886C48.184 38.56 48.0027 38.6354 47.8223 38.7148C47.6198 38.7958 47.4194 38.8798 47.221 38.9668C46.1662 39.4294 44.9149 39.2742 44.1004 38.4598L42.4576 36.817C41.4563 35.8157 39.8328 35.8157 38.8314 36.817L35.817 39.8314C34.8157 40.8328 34.8157 42.4563 35.817 43.4576L37.4598 45.1004C38.2742 45.9149 38.4342 47.1676 37.9444 48.2101C37.8495 48.412 37.7567 48.6161 37.666 48.8223C37.595 48.9999 37.527 49.1783 37.4622 49.3574C37.0558 50.4802 36.039 51.3125 34.845 51.3125H32.5641C31.148 51.3125 30 52.4605 30 53.8766V58.1234C30 59.5395 31.148 60.6875 32.5641 60.6875H34.845C36.039 60.6875 37.0558 61.5198 37.4622 62.6426C37.527 62.8217 37.595 63.0001 37.666 63.1777C37.7567 63.3839 37.8495 63.588 37.9444 63.7899C38.4342 64.8324 38.2742 66.0851 37.4598 66.8996L35.817 68.5424C34.8157 69.5437 34.8157 71.1672 35.817 72.1686L38.8314 75.183C39.8328 76.1843 41.4563 76.1843 42.4576 75.183L44.1004 73.5402C44.9149 72.7258 46.1676 72.5658 47.2101 73.0556C47.412 73.1505 47.6161 73.2433 47.8223 73.334C47.9999 73.405 48.1783 73.473 48.3574 73.5378C49.4802 73.9442 50.3125 74.961 50.3125 76.155V78.4359C50.3125 79.852 51.4605 81 52.8766 81H57.1234C58.5395 81 59.6875 79.852 59.6875 78.4359V76.155C59.6875 74.961 60.5198 73.9442 61.6426 73.5378C61.8217 73.473 62.0001 73.405 62.1777 73.334C62.3839 73.2433 62.588 73.1505 62.7899 73.0556C63.8324 72.5658 65.0851 72.7258 65.8996 73.5402L67.5424 75.183C68.5437 76.1843 70.1672 76.1843 71.1686 75.183L74.183 72.1686C75.1843 71.1672 75.1843 69.5437 74.183 68.5424L72.5402 66.8996C71.7258 66.0851 71.5706 64.8338 72.0332 63.779C72.1202 63.5806 72.2042 63.3802 72.2852 63.1777C72.3646 62.9973 72.44 62.816 72.5114 62.6339C72.9473 61.5224 73.961 60.6875 75.155 60.6875H77.4359C78.852 60.6875 80 59.5395 80 58.1234V53.8766C80 52.4605 78.852 51.3125 77.4359 51.3125H75.155C73.961 51.3125 72.9473 50.4777 72.5114 49.3661C72.44 49.184 72.3646 49.0027 72.2852 48.8223C72.2042 48.6198 72.1202 48.4194 72.0332 48.221Z" fill="#F9EEEA"></path>
  <path d="M62.1777 38.7148L61.3723 40.5455L61.4034 40.5592L61.435 40.5718L62.1777 38.7148ZM47.8223 38.7148L48.565 40.5718L48.5966 40.5592L48.6277 40.5455L47.8223 38.7148ZM37.666 48.8223L35.8354 48.0168L35.8217 48.0479L35.8091 48.0795L37.666 48.8223ZM37.666 63.1777L35.8091 63.9205L35.8217 63.9521L35.8354 63.9832L37.666 63.1777ZM47.8223 73.334L47.0168 75.1646L47.0479 75.1783L47.0795 75.1909L47.8223 73.334ZM62.1777 73.334L62.9205 75.1909L62.9521 75.1783L62.9832 75.1646L62.1777 73.334ZM72.2852 63.1777L70.4545 62.3723L70.4408 62.4034L70.4282 62.435L72.2852 63.1777ZM72.2852 48.8223L70.4282 49.565L70.4408 49.5966L70.4545 49.6277L72.2852 48.8223ZM72.5114 49.3661L70.6494 50.0963L72.5114 49.3661ZM72.5114 62.6339L70.6494 61.9037L72.5114 62.6339ZM72.5402 66.8996L71.126 68.3138L72.5402 66.8996ZM72.0332 63.779L73.8648 64.5823L72.0332 63.779ZM74.183 68.5424L75.5972 67.1282H75.5972L74.183 68.5424ZM62.7899 73.0556L61.9395 71.2454H61.9395L62.7899 73.0556ZM61.6426 73.5378L60.9619 71.6572L61.6426 73.5378ZM38.8314 75.183L37.4172 76.5972L37.4172 76.5972L38.8314 75.183ZM35.817 68.5424L34.4028 67.1282H34.4028L35.817 68.5424ZM35.817 72.1686L37.2312 70.7544H37.2312L35.817 72.1686ZM37.9444 63.7899L39.7546 62.9395V62.9395L37.9444 63.7899ZM37.4598 66.8996L38.874 68.3138L37.4598 66.8996ZM37.4622 62.6426L39.3428 61.9619L37.4622 62.6426ZM37.4622 49.3574L39.3428 50.0381L37.4622 49.3574ZM37.4598 45.1004L38.874 43.6862H38.874L37.4598 45.1004ZM37.9444 48.2101L39.7546 49.0605L37.9444 48.2101ZM47.221 38.9668L46.4177 37.1352H46.4177L47.221 38.9668ZM44.1004 38.4598L45.5146 37.0456L45.5146 37.0456L44.1004 38.4598ZM48.3661 38.4886L49.0963 40.3506L48.3661 38.4886ZM65.8996 38.4598L67.3138 39.874V39.874L65.8996 38.4598ZM62.779 38.9668L63.5823 37.1352L62.779 38.9668ZM48.3574 73.5378L49.0381 71.6572L48.3574 73.5378ZM71.1686 36.817L69.7544 38.2312V38.2312L71.1686 36.817ZM67.5424 36.817L66.1282 35.4028V35.4028L67.5424 36.817ZM35.817 43.4576L34.4028 44.8718H34.4028L35.817 43.4576ZM74.183 43.4576L72.7688 42.0434V42.0434L74.183 43.4576ZM74.183 39.8314L75.5972 38.4172L75.5972 38.4172L74.183 39.8314ZM61.6339 38.4886L60.9037 40.3506L61.6339 38.4886ZM42.4576 36.817L41.0434 38.2312V38.2312L42.4576 36.817ZM47.2101 73.0556L48.0605 71.2454L47.2101 73.0556ZM72.5402 45.1004L73.9544 46.5146V46.5146L72.5402 45.1004ZM72.0332 48.221L73.8648 47.4177V47.4177L72.0332 48.221ZM73.9544 46.5146L75.5972 44.8718L72.7688 42.0434L71.126 43.6862L73.9544 46.5146ZM75.5972 38.4172L72.5828 35.4028L69.7544 38.2312L72.7688 41.2457L75.5972 38.4172ZM66.1282 35.4028L64.4854 37.0456L67.3138 39.874L68.9566 38.2312L66.1282 35.4028ZM63.5823 37.1352C63.3637 37.0394 63.1431 36.9469 62.9205 36.8579L61.435 40.5718C61.6172 40.6447 61.7974 40.7202 61.9757 40.7984L63.5823 37.1352ZM62.9832 36.8842C62.7781 36.7939 62.5717 36.7081 62.3641 36.6267L60.9037 40.3506C61.0603 40.412 61.2165 40.4769 61.3723 40.5455L62.9832 36.8842ZM61.6875 35.845V33.5641H57.6875V35.845H61.6875ZM57.1234 29H52.8766V33H57.1234V29ZM48.3125 33.5641V35.845H52.3125V33.5641H48.3125ZM47.6359 36.6267C47.4283 36.7081 47.2219 36.7939 47.0168 36.8842L48.6277 40.5455C48.7835 40.4769 48.9397 40.412 49.0963 40.3506L47.6359 36.6267ZM47.0795 36.8579C46.8569 36.9469 46.6363 37.0394 46.4177 37.1352L48.0243 40.7984C48.2026 40.7202 48.3828 40.6447 48.565 40.5718L47.0795 36.8579ZM45.5146 37.0456L43.8718 35.4028L41.0434 38.2312L42.6862 39.874L45.5146 37.0456ZM37.4172 35.4028L34.4028 38.4172L37.2312 41.2456L40.2457 38.2312L37.4172 35.4028ZM34.4028 44.8718L36.0456 46.5146L38.874 43.6862L37.2312 42.0434L34.4028 44.8718ZM36.1342 47.3597C36.0323 47.5767 35.9327 47.7957 35.8354 48.0168L39.4966 49.6277C39.5808 49.4365 39.6668 49.2474 39.7546 49.0605L36.1342 47.3597ZM35.8091 48.0795C35.7298 48.2776 35.654 48.4767 35.5816 48.6768L39.3428 50.0381C39.4001 49.8798 39.4601 49.7222 39.523 49.565L35.8091 48.0795ZM34.845 49.3125H32.5641V53.3125H34.845V49.3125ZM28 53.8766V58.1234H32V53.8766H28ZM32.5641 62.6875H34.845V58.6875H32.5641V62.6875ZM35.5816 63.3232C35.654 63.5233 35.7298 63.7224 35.8091 63.9205L39.523 62.435C39.4601 62.2778 39.4001 62.1202 39.3428 61.9619L35.5816 63.3232ZM35.8354 63.9832C35.9327 64.2043 36.0323 64.4233 36.1342 64.6404L39.7546 62.9395C39.6668 62.7526 39.5808 62.5635 39.4966 62.3723L35.8354 63.9832ZM36.0456 65.4854L34.4028 67.1282L37.2312 69.9566L38.874 68.3138L36.0456 65.4854ZM34.4028 73.5828L37.4172 76.5972L40.2457 73.7688L37.2312 70.7544L34.4028 73.5828ZM43.8718 76.5972L45.5146 74.9544L42.6862 72.126L41.0434 73.7688L43.8718 76.5972ZM46.3597 74.8658C46.5767 74.9677 46.7957 75.0673 47.0168 75.1646L48.6277 71.5034C48.4365 71.4192 48.2474 71.3332 48.0605 71.2454L46.3597 74.8658ZM47.0795 75.1909C47.2776 75.2702 47.4767 75.346 47.6768 75.4184L49.0381 71.6572C48.8799 71.5999 48.7222 71.5399 48.565 71.477L47.0795 75.1909ZM48.3125 76.155V78.4359H52.3125V76.155H48.3125ZM52.8766 83H57.1234V79H52.8766V83ZM61.6875 78.4359V76.155H57.6875V78.4359H61.6875ZM62.3232 75.4184C62.5233 75.346 62.7224 75.2702 62.9205 75.1909L61.435 71.477C61.2778 71.5399 61.1201 71.5999 60.9619 71.6572L62.3232 75.4184ZM62.9832 75.1646C63.2043 75.0673 63.4233 74.9677 63.6404 74.8658L61.9395 71.2454C61.7526 71.3332 61.5635 71.4192 61.3723 71.5034L62.9832 75.1646ZM64.4854 74.9544L66.1282 76.5972L68.9566 73.7688L67.3138 72.126L64.4854 74.9544ZM72.5828 76.5972L75.5972 73.5828L72.7688 70.7544L69.7544 73.7688L72.5828 76.5972ZM75.5972 67.1282L73.9544 65.4854L71.126 68.3138L72.7688 69.9566L75.5972 67.1282ZM73.8648 64.5823C73.9606 64.3637 74.0531 64.1431 74.1421 63.9205L70.4282 62.435C70.3553 62.6172 70.2798 62.7975 70.2016 62.9757L73.8648 64.5823ZM74.1158 63.9832C74.206 63.7781 74.2919 63.5717 74.3733 63.3641L70.6494 61.9037C70.588 62.0603 70.5231 62.2164 70.4545 62.3723L74.1158 63.9832ZM75.155 62.6875H77.4359V58.6875H75.155V62.6875ZM82 58.1234V53.8766H78V58.1234H82ZM77.4359 49.3125H75.155V53.3125H77.4359V49.3125ZM74.3733 48.6359C74.2919 48.4283 74.206 48.2219 74.1158 48.0168L70.4545 49.6277C70.5231 49.7836 70.588 49.9397 70.6494 50.0963L74.3733 48.6359ZM74.1421 48.0795C74.0531 47.8569 73.9606 47.6363 73.8648 47.4177L70.2016 49.0243C70.2798 49.2026 70.3553 49.3828 70.4282 49.565L74.1421 48.0795ZM75.155 49.3125C74.944 49.3125 74.572 49.1425 74.3733 48.6359L70.6494 50.0963C71.3226 51.8129 72.978 53.3125 75.155 53.3125V49.3125ZM82 53.8766C82 51.3559 79.9566 49.3125 77.4359 49.3125V53.3125C77.7474 53.3125 78 53.5651 78 53.8766H82ZM77.4359 62.6875C79.9566 62.6875 82 60.6441 82 58.1234H78C78 58.4349 77.7474 58.6875 77.4359 58.6875V62.6875ZM74.3733 63.3641C74.572 62.8575 74.944 62.6875 75.155 62.6875V58.6875C72.978 58.6875 71.3226 60.1872 70.6494 61.9037L74.3733 63.3641ZM73.9544 65.4854C73.802 65.333 73.6856 64.9909 73.8648 64.5823L70.2016 62.9757C69.4556 64.6767 69.6495 66.8373 71.126 68.3138L73.9544 65.4854ZM75.5972 73.5828C77.3796 71.8004 77.3796 68.9106 75.5972 67.1282L72.7688 69.9566C72.9891 70.1769 72.9891 70.5341 72.7688 70.7544L75.5972 73.5828ZM66.1282 76.5972C67.9106 78.3796 70.8004 78.3796 72.5828 76.5972L69.7544 73.7688C69.5341 73.9891 69.1769 73.9891 68.9566 73.7688L66.1282 76.5972ZM63.6404 74.8658C63.9993 74.6971 64.3266 74.7957 64.4854 74.9544L67.3138 72.126C65.8436 70.6558 63.6656 70.4345 61.9395 71.2454L63.6404 74.8658ZM61.6875 76.155C61.6875 75.9375 61.8581 75.5868 62.3232 75.4184L60.9619 71.6572C59.1815 72.3016 57.6875 73.9846 57.6875 76.155H61.6875ZM57.1234 83C59.6441 83 61.6875 80.9566 61.6875 78.4359H57.6875C57.6875 78.7474 57.4349 79 57.1234 79V83ZM37.4172 76.5972C39.1996 78.3796 42.0894 78.3796 43.8718 76.5972L41.0434 73.7688C40.8231 73.9891 40.4659 73.9891 40.2456 73.7688L37.4172 76.5972ZM34.4028 67.1282C32.6204 68.9106 32.6204 71.8004 34.4028 73.5828L37.2312 70.7544C37.0109 70.5341 37.0109 70.1769 37.2312 69.9566L34.4028 67.1282ZM36.1342 64.6404C36.3029 64.9993 36.2043 65.3266 36.0456 65.4854L38.874 68.3138C40.3442 66.8436 40.5655 64.6656 39.7546 62.9395L36.1342 64.6404ZM34.845 62.6875C35.0625 62.6875 35.4132 62.8581 35.5816 63.3232L39.3428 61.9619C38.6984 60.1815 37.0154 58.6875 34.845 58.6875V62.6875ZM28 58.1234C28 60.6441 30.0434 62.6875 32.5641 62.6875V58.6875C32.2526 58.6875 32 58.4349 32 58.1234H28ZM32.5641 49.3125C30.0434 49.3125 28 51.3559 28 53.8766H32C32 53.5651 32.2526 53.3125 32.5641 53.3125V49.3125ZM35.5816 48.6768C35.4132 49.1419 35.0625 49.3125 34.845 49.3125V53.3125C37.0154 53.3125 38.6984 51.8185 39.3428 50.0381L35.5816 48.6768ZM36.0456 46.5146C36.2043 46.6734 36.3029 47.0007 36.1342 47.3597L39.7546 49.0605C40.5655 47.3344 40.3442 45.1564 38.874 43.6862L36.0456 46.5146ZM46.4177 37.1352C46.0091 37.3144 45.6671 37.198 45.5146 37.0456L42.6862 39.874C44.1627 41.3505 46.3233 41.5444 48.0243 40.7984L46.4177 37.1352ZM48.3125 35.845C48.3125 36.056 48.1425 36.428 47.6359 36.6267L49.0963 40.3506C50.8129 39.6774 52.3125 38.022 52.3125 35.845H48.3125ZM52.8766 29C50.3559 29 48.3125 31.0434 48.3125 33.5641H52.3125C52.3125 33.2526 52.5651 33 52.8766 33V29ZM61.6875 33.5641C61.6875 31.0434 59.6441 29 57.1234 29V33C57.4349 33 57.6875 33.2526 57.6875 33.5641H61.6875ZM48.3125 78.4359C48.3125 80.9566 50.3559 83 52.8766 83V79C52.5651 79 52.3125 78.7474 52.3125 78.4359H48.3125ZM64.4854 37.0456C64.333 37.198 63.9909 37.3144 63.5823 37.1352L61.9757 40.7984C63.6767 41.5444 65.8373 41.3505 67.3138 39.874L64.4854 37.0456ZM47.6768 75.4184C48.1419 75.5868 48.3125 75.9375 48.3125 76.155H52.3125C52.3125 73.9846 50.8185 72.3016 49.0381 71.6572L47.6768 75.4184ZM72.5828 35.4028C70.8004 33.6204 67.9106 33.6204 66.1282 35.4028L68.9566 38.2312C69.1769 38.0109 69.5341 38.0109 69.7544 38.2312L72.5828 35.4028ZM34.4028 38.4172C32.6204 40.1996 32.6204 43.0894 34.4028 44.8718L37.2312 42.0434C37.0109 41.8231 37.0109 41.4659 37.2312 41.2456L34.4028 38.4172ZM75.5972 44.8718C77.3796 43.0894 77.3796 40.1996 75.5972 38.4172L72.7688 41.2457C72.9891 41.4659 72.9891 41.8231 72.7688 42.0434L75.5972 44.8718ZM62.3641 36.6267C61.8575 36.428 61.6875 36.056 61.6875 35.845H57.6875C57.6875 38.022 59.1872 39.6774 60.9037 40.3506L62.3641 36.6267ZM43.8718 35.4028C42.0894 33.6204 39.1996 33.6204 37.4172 35.4028L40.2457 38.2312C40.4659 38.0109 40.8231 38.0109 41.0434 38.2312L43.8718 35.4028ZM45.5146 74.9544C45.6734 74.7957 46.0007 74.6971 46.3597 74.8658L48.0605 71.2454C46.3344 70.4345 44.1564 70.6558 42.6862 72.126L45.5146 74.9544ZM71.126 43.6862C69.6495 45.1627 69.4556 47.3233 70.2016 49.0243L73.8648 47.4177C73.6856 47.0091 73.802 46.6671 73.9544 46.5146L71.126 43.6862Z" fill="#7F8689" mask="url(#path-25-inside-1)"></path>
  <circle cx="55.0003" cy="56" r="7.83333" fill="white" stroke="#7F8689"></circle>
  <rect x="56" y="56" width="68" height="91" rx="3" fill="white" stroke="#7F8689" stroke-width="2"></rect>
  <rect x="149.78" y="106.399" width="8.46365" height="30.0829" rx="4.23183" transform="rotate(-45 149.78 106.399)" fill="white" stroke="#7F8689" stroke-width="2"></rect>
  <mask id="path-30-inside-2" fill="white">
    <path d="M55 67H125V68H55V67Z"></path>
  </mask>
  <path d="M55 67H125V68H55V67Z" fill="white"></path>
  <path d="M55 67V65H53V67H55ZM125 67H127V65H125V67ZM125 68V70H127V68H125ZM55 68H53V70H55V68ZM55 69H125V65H55V69ZM123 67V68H127V67H123ZM125 66H55V70H125V66ZM57 68V67H53V68H57Z" fill="#7F8689" mask="url(#path-30-inside-2)"></path>
  <rect x="62.5" y="73.5" width="55" height="19" rx="1.5" fill="white" stroke="#7F8689"></rect>
  <rect x="62.5" y="97.5" width="25" height="19" rx="1.5" fill="white" stroke="#7F8689"></rect>
  <rect x="92.5" y="97.5" width="25" height="19" rx="1.5" fill="white" stroke="#7F8689"></rect>
  <rect x="62.5" y="121.5" width="25" height="19" rx="1.5" fill="white" stroke="#7F8689"></rect>
  <circle cx="127" cy="76" r="32" fill="white" stroke="#7F8689" stroke-width="2"></circle>
  <circle cx="127" cy="76" r="28" fill="#E4F2FD"></circle>
  <path d="M103 77C103 63.1929 114.193 52 128 52" stroke="white" stroke-width="2" stroke-linecap="round"></path>
  <circle cx="62" cy="62" r="1" fill="#7F8689"></circle>
  <circle cx="66" cy="62" r="1" fill="#7F8689"></circle>
  <circle cx="70" cy="62" r="1" fill="#7F8689"></circle>
  <path d="M112 77.2411L120.775 68.4107L135.272 83L184 34" stroke="#A6D5FA" stroke-width="5" stroke-linecap="round" stroke-linejoin="round"></path>
  <rect x="167" y="31" width="20" height="5" rx="2.5" fill="#A6D5FA"></rect>
  <rect x="182" y="51" width="20" height="5" rx="2.5" transform="rotate(-90 182 51)" fill="#A6D5FA"></rect>
</svg>
