<?xml version="1.0" encoding="UTF-8"?>
<!DOCTYPE svg PUBLIC "-//W3C//DTD SVG 1.1//EN" "http://www.w3.org/Graphics/SVG/1.1/DTD/svg11.dtd">
<!-- Creator: CorelDRAW 2018 (64 Bit) -->
<svg xmlns="http://www.w3.org/2000/svg" xml:space="preserve" width="323mm" height="27mm" version="1.1" style="shape-rendering:geometricPrecision; text-rendering:geometricPrecision; image-rendering:optimizeQuality; fill-rule:evenodd; clip-rule:evenodd"
viewBox="0 0 32300 8700"
 xmlns:xlink="http://www.w3.org/1999/xlink">
 <defs>
  <style type="text/css">
   <![CDATA[
    .fil0 {fill:#8c8c8c}
    .fil1 {fill:#8c8c8c;fill-rule:nonzero}
   ]]>
  </style>
 </defs>
 <g id="Camada_x0020_1">
  <metadata id="CorelCorpID_0Corel-Layer"/>
  <path class="fil0" d="M3773.91 28.62c2065.52,0 3739.95,1674.43 3739.95,3739.94 0,2065.51 -1674.43,3739.94 -3739.95,3739.94 -124.02,0 -246.59,-6.18 -367.52,-17.98 1.65,-128.7 0.94,-479.73 0.03,-799.08 0,-0.33 0,-3792.69 0,-3793.13 312.28,0 272.93,1.8 696.13,1.8 0,0 2.68,3794.35 3.92,3794.22 1469.53,-165.11 2611.79,-1412.09 2611.79,-2925.77 0,-1626.12 -1318.23,-2944.35 -2944.35,-2944.35 -1626.12,0 -2944.34,1318.23 -2944.34,2944.35 0,1100.76 604.15,2060.28 1498.86,2565.48l-474.68 644.34c-1090.08,-653.51 -1819.78,-1846.38 -1819.78,-3209.82 0,-2065.51 1674.43,-3739.94 3739.94,-3739.94z"/>
  <path class="fil0" d="M3753.52 1564.01c268.92,0 486.92,218.01 486.92,486.93 0,268.92 -218,486.93 -486.92,486.93 -268.93,0 -486.93,-218.01 -486.93,-486.93 0,-268.92 218,-486.93 486.93,-486.93z"/>
  <path class="fil1" d="M10077.14 1256.54l-1010.07 0 0 -898.87 1010.07 0 0 898.87zm0 5282.01l-1010.07 0 0 -4327.54 1010.07 0 0 4327.54zm3997.2 -2668.8l-945.21 0c7.72,-129.74 10.82,-231.67 10.82,-305.8 0,-185.34 -30.89,-324.34 -92.67,-415.46 -92.67,-135.91 -253.3,-203.87 -481.87,-203.87 -296.54,0 -494.22,80.32 -594.61,239.39 -103.49,168.35 -155.99,427.82 -155.99,778.41l0 2576.13 -1028.61 0 0 -4327.54 980.72 0 -16.98 574.54 37.06 0c111.2,-214.69 261.02,-375.31 452.53,-480.33 191.51,-106.56 409.28,-159.08 650.21,-159.08 506.58,0 843.27,163.71 1008.52,492.68 117.39,228.58 176.08,637.85 176.08,1230.93zm3590.99 0l-945.2 0c7.72,-129.74 10.81,-231.67 10.81,-305.8 0,-185.34 -30.89,-324.34 -92.67,-415.46 -92.67,-135.91 -253.29,-203.87 -481.87,-203.87 -296.53,0 -494.22,80.32 -594.61,239.39 -103.48,168.35 -155.98,427.82 -155.98,778.41l0 2576.13 -1028.61 0 0 -4327.54 980.72 0 -16.99 574.54 37.07 0c111.2,-214.69 261.01,-375.31 452.53,-480.33 191.51,-106.56 409.27,-159.08 650.21,-159.08 506.58,0 843.27,163.71 1008.52,492.68 117.38,228.58 176.07,637.85 176.07,1230.93zm4250.48 350.59c0,957.56 -114.3,1581.51 -341.33,1871.87 -261.01,335.14 -829.37,501.94 -1706.62,501.94 -838.63,0 -1394.63,-191.5 -1666.46,-574.53 -211.58,-296.53 -316.61,-860.26 -316.61,-1688.09 0,-869.52 132.83,-1450.23 398.47,-1742.13 259.47,-288.82 821.65,-433.99 1686.54,-433.99 741.34,0 1244.83,129.73 1512.01,389.2 288.82,284.18 434,841.72 434,1675.73zm-1028.61 18.53c0,-542.1 -55.6,-894.23 -165.26,-1056.4 -117.37,-152.91 -376.84,-230.13 -778.39,-230.13 -450.98,0 -732.07,74.13 -844.82,222.41 -117.38,154.44 -176.07,531.28 -176.07,1130.53 0,685.73 49.43,1108.92 148.27,1269.54 98.84,160.62 376.84,240.94 834,240.94 421.64,0 684.2,-77.23 787.67,-233.22 129.73,-185.33 194.6,-633.23 194.6,-1343.67zm5555.54 58.69c0,807.75 -80.31,1357.57 -239.39,1649.47 -230.12,418.54 -705.81,628.59 -1428.62,628.59 -333.59,0 -596.15,-46.33 -787.67,-137.46 -191.5,-92.67 -370.66,-274.9 -539.01,-548.28l29.34 648.67 -1019.33 0 0 -6180.88 1019.33 0 0 2437.14 37.08 0c123.55,-247.11 287.26,-417 491.12,-508.12 197.7,-94.22 447.9,-140.55 750.61,-140.55 704.26,0 1175.32,185.33 1410.09,556 183.78,291.91 276.45,823.19 276.45,1595.42zm-1019.34 145.17c0,-574.53 -49.42,-954.46 -149.81,-1139.79 -129.74,-233.22 -400.01,-350.6 -813.92,-350.6 -420.09,0 -696.55,126.65 -826.28,379.94 -91.13,185.33 -137.46,559.09 -137.46,1119.72 0,483.42 43.24,804.66 129.74,963.74 128.19,236.3 415.45,353.68 861.8,353.68 407.73,0 673.38,-111.21 795.38,-332.05 94.22,-168.36 140.55,-498.86 140.55,-994.64zm5444.34 2095.82l-980.72 0 0 -537.46c-143.64,251.74 -341.33,421.63 -596.16,509.67 -177.61,61.78 -446.34,92.66 -804.66,92.66 -506.58,0 -880.33,-83.4 -1122.82,-251.74 -288.81,-202.33 -433.98,-551.37 -433.98,-1047.14 0,-525.11 142.09,-894.23 424.72,-1110.46 248.65,-185.33 637.85,-278 1167.6,-278 421.64,0 721.26,30.89 901.97,92.67 171.42,61.78 310.42,185.33 415.45,370.67l-9.27 -657.94c0,-353.68 -61.78,-586.89 -185.34,-704.27 -129.73,-111.2 -373.75,-166.8 -732.06,-166.8 -321.25,0 -540.56,55.6 -656.39,166.8 -92.67,92.67 -140.55,247.12 -140.55,461.79l-1039.41 0c0,-560.64 174.53,-931.3 520.48,-1110.46 234.75,-123.55 656.39,-185.33 1269.54,-185.33 691.91,0 1173.78,80.31 1445.6,239.39 370.66,217.76 556,650.21 556,1298.88l0 2817.07zm-1028.6 -1308.15c0,-239.39 -55.61,-400.01 -166.8,-481.86 -142.09,-103.48 -420.09,-155.99 -832.46,-155.99 -321.25,0 -549.83,46.34 -685.74,139 -137.45,92.67 -205.4,244.02 -205.4,454.07 0,296.53 71.03,492.67 214.67,583.8 109.66,74.13 325.88,111.2 647.12,111.2 321.25,0 552.92,-30.89 696.55,-92.67 220.86,-92.66 332.06,-278 332.06,-557.55z"/>
  <path class="fil1" d="M18232.66 8221.53c1.76,13.68 2.64,33.09 2.64,57.8 0,142.98 -55.45,240.94 -166.34,293.45 -80.97,39.27 -204.18,58.69 -369.63,58.69 -248.64,0 -410.57,-48.54 -486.26,-146.06 -64.69,-82.96 -97.25,-253.73 -97.25,-513.2 0,-228.13 34.33,-383.46 102.53,-465.97 79.65,-95.32 229.26,-142.97 449.29,-142.97 255.23,0 418.04,54.71 488.01,164.15 51.49,79.42 77.01,253.28 77.01,521.57l-826.41 0c0,148.27 12.32,242.26 37.4,280.65 36.97,58.25 124.1,87.37 260.95,87.37 77.46,0 132.9,-9.71 166.34,-29.12 49.28,-28.24 73.93,-83.84 73.93,-166.36l287.79 0zm-282.51 -355.22c0,-121.79 -15.85,-200.34 -47.53,-235.64 -31.68,-35.3 -106.92,-52.95 -227.06,-52.95 -109.13,0 -181.3,19.42 -216.5,58.25 -35.2,39.27 -52.81,116.05 -52.81,230.34l543.9 0zm2330.93 280.64c0,192.4 -37.85,320.81 -113.54,386.55 -75.69,65.31 -221.78,97.97 -438.28,97.97 -214.31,0 -360.4,-44.13 -438.29,-132.38 -78.77,-88.26 -118.37,-239.61 -118.37,-453.19 0,-248.87 29.92,-417.87 89.77,-507.89 77.45,-114.73 231.46,-172.1 462.05,-172.1 214.73,0 359.07,30.89 433,92.67 73.49,63.54 110.45,181.8 110.45,354.78l-279.42 0c0,-95.32 -18.49,-156.21 -55.45,-182.69 -38.73,-24.71 -110.01,-37.06 -213.87,-37.06 -114.41,0 -184.81,26.47 -211.66,79.42 -25.96,54.72 -39.16,178.28 -39.16,370.67 0,134.58 9.68,221.07 29.04,259.9 33.45,66.64 109.14,100.17 226.62,100.17 114.41,0 188.35,-15 221.79,-44.57 33.44,-30 50.17,-101.05 50.17,-212.25l285.15 0zm1326.3 -193.71c0,273.58 -32.57,451.86 -97.25,534.81 -74.38,95.76 -236.31,143.42 -486.25,143.42 -238.95,0 -397.37,-54.72 -474.82,-164.16 -60.28,-84.72 -90.21,-245.78 -90.21,-482.3 0,-248.43 37.85,-414.35 113.54,-497.75 73.92,-82.52 234.1,-123.99 480.53,-123.99 211.22,0 354.67,37.06 430.8,111.19 82.29,81.2 123.66,240.49 123.66,478.78zm-293.08 5.29c0,-154.88 -15.83,-255.49 -47.08,-301.82 -33.45,-43.69 -107.37,-65.75 -221.78,-65.75 -128.5,0 -208.58,21.18 -240.71,63.54 -33.44,44.13 -50.17,151.8 -50.17,323.01 0,195.92 14.08,316.83 42.25,362.72 28.17,45.89 107.37,68.84 237.63,68.84 120.12,0 194.94,-22.07 224.42,-66.63 36.96,-52.96 55.44,-180.92 55.44,-383.91zm2378.9 657.05l-298.36 0 0 -762.51c0,-93.55 -11.44,-157.09 -34.32,-190.63 -29.92,-42.36 -89.77,-63.54 -179.53,-63.54 -82.73,0 -142.14,12.36 -179.11,37.07 -62.05,42.36 -92.85,127.08 -92.85,254.61l0 725 -298.35 0 0 -770.45c0,-95.32 -10.56,-157.98 -31.69,-187.98 -27.72,-38.83 -88.44,-58.25 -181.73,-58.25 -100.77,0 -171.18,23.83 -211.66,71.93 -40.49,47.21 -60.73,123.11 -60.73,227.25l0 717.5 -290.43 0 0 -1236.43 282.07 0 3.08 180.48c42.24,-72.81 93.29,-123.11 153.13,-151.36 59.41,-28.24 133.34,-42.36 221.79,-42.36 98.57,0 177.34,13.24 235.43,39.28 77.44,35.74 124.97,95.75 142.57,180.91 35.2,-81.63 85.81,-139.44 152.7,-172.97 66.88,-31.33 146.97,-47.22 240.26,-47.22 153.14,0 263.15,32.66 329.6,97.52 65.57,67.52 98.13,177.83 98.13,330.95l0 821.2zm2146.54 0l-298.35 0 0 -762.51c0,-93.55 -11.44,-157.09 -34.32,-190.63 -29.92,-42.36 -89.78,-63.54 -179.54,-63.54 -82.73,0 -142.13,12.36 -179.1,37.07 -62.05,42.36 -92.85,127.08 -92.85,254.61l0 725 -298.35 0 0 -770.45c0,-95.32 -10.57,-157.98 -31.69,-187.98 -27.72,-38.83 -88.44,-58.25 -181.73,-58.25 -100.77,0 -171.18,23.83 -211.67,71.93 -40.48,47.21 -60.72,123.11 -60.72,227.25l0 717.5 -290.43 0 0 -1236.43 282.07 0 3.08 180.48c42.24,-72.81 93.29,-123.11 153.13,-151.36 59.41,-28.24 133.34,-42.36 221.79,-42.36 98.56,0 177.34,13.24 235.42,39.28 77.45,35.74 124.98,95.75 142.58,180.91 35.2,-81.63 85.81,-139.44 152.7,-172.97 66.88,-31.33 146.97,-47.22 240.26,-47.22 153.13,0 263.15,32.66 329.6,97.52 65.56,67.52 98.12,177.83 98.12,330.95l0 821.2zm1362.39 -394.05c1.76,13.68 2.64,33.09 2.64,57.8 0,142.98 -55.45,240.94 -166.34,293.45 -80.97,39.27 -204.18,58.69 -369.64,58.69 -248.63,0 -410.56,-48.54 -486.25,-146.06 -64.69,-82.96 -97.25,-253.73 -97.25,-513.2 0,-228.13 34.33,-383.46 102.53,-465.97 79.65,-95.32 229.26,-142.97 449.29,-142.97 255.22,0 418.04,54.71 488.01,164.15 51.49,79.42 77.01,253.28 77.01,521.57l-826.41 0c0,148.27 12.32,242.26 37.4,280.65 36.97,58.25 124.1,87.37 260.95,87.37 77.46,0 132.9,-9.71 166.34,-29.12 49.28,-28.24 73.93,-83.84 73.93,-166.36l287.79 0zm-282.51 -355.22c0,-121.79 -15.85,-200.34 -47.53,-235.64 -31.68,-35.3 -106.92,-52.95 -227.06,-52.95 -109.13,0 -181.3,19.42 -216.5,58.25 -35.2,39.27 -52.81,116.05 -52.81,230.34l543.9 0zm1467.56 -13.24l-269.31 0c2.2,-37.07 3.08,-66.19 3.08,-87.37 0,-52.95 -8.8,-92.67 -26.41,-118.7 -26.4,-38.83 -72.16,-58.25 -137.29,-58.25 -84.48,0 -140.82,22.95 -169.42,68.4 -29.48,48.1 -44.44,122.23 -44.44,222.4l0 736.03 -293.07 0 0 -1236.43 279.42 0 -4.83 164.15 10.56 0c31.68,-61.33 74.37,-107.23 128.93,-137.23 54.57,-30.45 116.62,-45.45 185.27,-45.45 144.33,0 240.26,46.77 287.34,140.76 33.45,65.31 50.17,182.24 50.17,351.69zm1238.29 293.88c0,192.4 -37.85,320.81 -113.54,386.55 -75.69,65.31 -221.78,97.97 -438.28,97.97 -214.31,0 -360.4,-44.13 -438.29,-132.38 -78.77,-88.26 -118.37,-239.61 -118.37,-453.19 0,-248.87 29.92,-417.87 89.77,-507.89 77.45,-114.73 231.46,-172.1 462.05,-172.1 214.73,0 359.07,30.89 433,92.67 73.49,63.54 110.45,181.8 110.45,354.78l-279.42 0c0,-95.32 -18.49,-156.21 -55.45,-182.69 -38.73,-24.71 -110.01,-37.06 -213.87,-37.06 -114.41,0 -184.81,26.47 -211.66,79.42 -25.96,54.72 -39.16,178.28 -39.16,370.67 0,134.58 9.68,221.07 29.04,259.9 33.45,66.64 109.14,100.17 226.62,100.17 114.41,0 188.35,-15 221.79,-44.57 33.44,-30 50.17,-101.05 50.17,-212.25l285.15 0zm1276.13 74.58c1.76,13.68 2.64,33.09 2.64,57.8 0,142.98 -55.45,240.94 -166.34,293.45 -80.96,39.27 -204.18,58.69 -369.63,58.69 -248.63,0 -410.56,-48.54 -486.25,-146.06 -64.7,-82.96 -97.26,-253.73 -97.26,-513.2 0,-228.13 34.33,-383.46 102.53,-465.97 79.65,-95.32 229.26,-142.97 449.29,-142.97 255.23,0 418.05,54.71 488.01,164.15 51.49,79.42 77.01,253.28 77.01,521.57l-826.41 0c0,148.27 12.33,242.26 37.41,280.65 36.96,58.25 124.09,87.37 260.94,87.37 77.46,0 132.9,-9.71 166.34,-29.12 49.28,-28.24 73.94,-83.84 73.94,-166.36l287.78 0zm-282.51 -355.22c0,-121.79 -15.84,-200.34 -47.53,-235.64 -31.68,-35.3 -106.92,-52.95 -227.06,-52.95 -109.12,0 -181.29,19.42 -216.5,58.25 -35.2,39.27 -52.81,116.05 -52.81,230.34l543.9 0zm-12212.17 180.04l0 -232.99 583.51 0 0 232.99 -583.51 0z"/>
  <path class="fil1" d="M31788.42 1711.27c82.11,0 160.8,20.48 236.08,61.64 75.5,40.94 134.78,99.8 177.86,176.36 43.08,76.56 64.62,156.75 64.62,240.56 0,83.39 -21.11,162.72 -63.34,238.43 -42.44,75.49 -101.3,134.35 -176.79,176.79 -75.71,42.23 -155.04,63.34 -238.43,63.34 -83.38,0 -162.72,-21.11 -238.43,-63.34 -75.49,-42.44 -134.35,-101.3 -176.79,-176.79 -42.23,-75.71 -63.34,-155.04 -63.34,-238.43 0,-83.81 21.54,-164 64.62,-240.56 43.08,-76.56 102.37,-135.42 177.86,-176.36 75.28,-41.16 153.98,-61.64 236.08,-61.64zm0.43 94.69c-65.9,0 -129.03,16.42 -189.38,49.27 -60.35,32.84 -107.91,79.97 -142.67,141.6 -34.76,61.42 -52.25,126.04 -52.25,193.22 0,66.96 17.06,130.94 50.97,191.51 33.91,60.77 81.25,108.12 142.03,142.24 60.78,34.12 124.55,51.18 191.3,51.18 66.96,0 130.73,-17.06 191.29,-51.18 60.78,-34.12 108.13,-81.47 142.25,-142.24 34.12,-60.57 51.18,-124.55 51.18,-191.51 0,-67.18 -17.49,-131.8 -52.25,-193.22 -34.76,-61.63 -82.32,-108.76 -142.88,-141.6 -60.78,-32.85 -123.91,-49.27 -189.59,-49.27zm-216.68 639.79l0 -506.71 102.8 0c96.39,0 150.56,0.42 162.07,1.28 34.13,2.77 60.57,9.59 79.55,20.26 18.77,10.45 34.55,26.65 47.35,48.62 12.58,21.75 18.98,46.06 18.98,72.51 0,36.68 -11.95,67.82 -35.83,93.83 -23.89,26.02 -57.37,42.02 -100.45,48.41 15.36,5.76 27.3,12.16 35.62,18.99 8.31,6.82 19.83,19.83 34.33,38.81 3.84,5.12 16.21,25.59 37.54,61.84l59.5 102.16 -127.96 0 -42.01 -82.54c-28.37,-55.23 -51.83,-90.2 -70.38,-104.49 -18.77,-14.29 -42.23,-21.54 -70.8,-21.54l-26.66 0 0 208.57 -103.65 0zm103.65 -289.19l41.58 0c59.29,0 96.19,-2.34 110.47,-6.82 14.29,-4.48 25.6,-12.37 33.91,-23.67 8.32,-11.31 12.37,-24.1 12.37,-38.6 0,-13.86 -4.05,-26.45 -12.15,-37.32 -8.11,-10.88 -19.62,-18.77 -34.55,-23.46 -14.93,-4.69 -51.61,-7.04 -110.05,-7.04l-41.58 0 0 136.91z"/>
 </g>
</svg>
